<?xml version="1.0" encoding="UTF-8" standalone="no"?>
<!DOCTYPE svg PUBLIC "-//W3C//DTD SVG 1.1//EN"
 "http://www.w3.org/Graphics/SVG/1.1/DTD/svg11.dtd">
<!-- Generated by graphviz version 2.43.0 (0)
 -->
<!-- Title: YAOI Pages: 1 -->
<svg width="538pt" height="348pt"
 viewBox="0.00 0.00 538.00 348.00" xmlns="http://www.w3.org/2000/svg" xmlns:xlink="http://www.w3.org/1999/xlink">
<g id="graph0" class="graph" transform="scale(1 1) rotate(0) translate(4 344)">
<title>YAOI</title>
<polygon fill="white" stroke="transparent" points="-4,4 -4,-344 534,-344 534,4 -4,4"/>
<g id="clust1" class="cluster">
<title>cluster_ir</title>
<path fill="white" stroke="#999999" stroke-dasharray="5,2" d="M361,-8C361,-8 510,-8 510,-8 516,-8 522,-14 522,-20 522,-20 522,-140 522,-140 522,-146 516,-152 510,-152 510,-152 361,-152 361,-152 355,-152 349,-146 349,-140 349,-140 349,-20 349,-20 349,-14 355,-8 361,-8"/>
<text text-anchor="middle" x="435.5" y="-140" font-family="Helvetica,sans-Serif" font-size="10.00">Шар проміжного подання (IR)</text>
</g>
<g id="clust2" class="cluster">
<title>cluster_reg</title>
<path fill="white" stroke="#999999" stroke-dasharray="5,2" d="M20,-81C20,-81 139,-81 139,-81 145,-81 151,-87 151,-93 151,-93 151,-230 151,-230 151,-236 145,-242 139,-242 139,-242 20,-242 20,-242 14,-242 8,-236 8,-230 8,-230 8,-93 8,-93 8,-87 14,-81 20,-81"/>
<text text-anchor="middle" x="79.5" y="-230" font-family="Helvetica,sans-Serif" font-size="10.00">Шар реєстру метаданих</text>
</g>
<g id="clust3" class="cluster">
<title>cluster_drv</title>
<path fill="white" stroke="#999999" stroke-dasharray="5,2" d="M200,-81C200,-81 329,-81 329,-81 335,-81 341,-87 341,-93 341,-93 341,-140 341,-140 341,-146 335,-152 329,-152 329,-152 200,-152 200,-152 194,-152 188,-146 188,-140 188,-140 188,-93 188,-93 188,-87 194,-81 200,-81"/>
<text text-anchor="middle" x="264.5" y="-140" font-family="Helvetica,sans-Serif" font-size="10.00">Шар драйверів і діалектів</text>
</g>
<g id="clust4" class="cluster">
<title>cluster_model</title>
<path fill="white" stroke="#999999" stroke-dasharray="5,2" d="M177,-171C177,-171 231,-171 231,-171 237,-171 243,-177 243,-183 243,-183 243,-230 243,-230 243,-236 237,-242 231,-242 231,-242 177,-242 177,-242 171,-242 165,-236 165,-230 165,-230 165,-183 165,-183 165,-177 171,-171 177,-171"/>
<text text-anchor="middle" x="204" y="-230" font-family="Helvetica,sans-Serif" font-size="10.00">Шар моделі</text>
</g>
<g id="clust5" class="cluster">
<title>cluster_evo</title>
<path fill="white" stroke="#999999" stroke-dasharray="5,2" d="M300,-171C300,-171 431,-171 431,-171 437,-171 443,-177 443,-183 443,-183 443,-320 443,-320 443,-326 437,-332 431,-332 431,-332 300,-332 300,-332 294,-332 288,-326 288,-320 288,-320 288,-183 288,-183 288,-177 294,-171 300,-171"/>
<text text-anchor="middle" x="365.5" y="-320" font-family="Helvetica,sans-Serif" font-size="10.00">Шар еволюції схеми та CLI</text>
</g>
<!-- qb -->
<g id="node1" class="node">
<title>qb</title>
<path fill="#e7f0ff" stroke="#333333" d="M444.5,-52C444.5,-52 369.5,-52 369.5,-52 363.5,-52 357.5,-46 357.5,-40 357.5,-40 357.5,-28 357.5,-28 357.5,-22 363.5,-16 369.5,-16 369.5,-16 444.5,-16 444.5,-16 450.5,-16 456.5,-22 456.5,-28 456.5,-28 456.5,-40 456.5,-40 456.5,-46 450.5,-52 444.5,-52"/>
<text text-anchor="middle" x="407" y="-31.2" font-family="Helvetica,sans-Serif" font-size="11.00">query&#45;builder</text>
</g>
<!-- sb -->
<g id="node2" class="node">
<title>sb</title>
<path fill="#e7f0ff" stroke="#333333" d="M489.5,-125C489.5,-125 402.5,-125 402.5,-125 396.5,-125 390.5,-119 390.5,-113 390.5,-113 390.5,-101 390.5,-101 390.5,-95 396.5,-89 402.5,-89 402.5,-89 489.5,-89 489.5,-89 495.5,-89 501.5,-95 501.5,-101 501.5,-101 501.5,-113 501.5,-113 501.5,-119 495.5,-125 489.5,-125"/>
<text text-anchor="middle" x="446" y="-104.2" font-family="Helvetica,sans-Serif" font-size="11.00">schema&#45;builder</text>
</g>
<!-- sb&#45;&gt;qb -->
<g id="edge1" class="edge">
<title>sb&#45;&gt;qb</title>
<path fill="none" stroke="#555555" d="M436.56,-88.81C431.53,-79.66 425.27,-68.26 419.81,-58.32"/>
<polygon fill="#555555" stroke="#555555" points="421.87,-56.98 416.35,-52.03 417.58,-59.34 421.87,-56.98"/>
</g>
<!-- drv -->
<g id="node5" class="node">
<title>drv</title>
<path fill="#fff3e0" stroke="#333333" d="M318.5,-125C318.5,-125 277.5,-125 277.5,-125 271.5,-125 265.5,-119 265.5,-113 265.5,-113 265.5,-101 265.5,-101 265.5,-95 271.5,-89 277.5,-89 277.5,-89 318.5,-89 318.5,-89 324.5,-89 330.5,-95 330.5,-101 330.5,-101 330.5,-113 330.5,-113 330.5,-119 324.5,-125 318.5,-125"/>
<text text-anchor="middle" x="298" y="-104.2" font-family="Helvetica,sans-Serif" font-size="11.00">drivers</text>
</g>
<!-- sb&#45;&gt;drv -->
<g id="edge14" class="edge">
<title>sb&#45;&gt;drv</title>
<path fill="none" stroke="#555555" stroke-dasharray="5,2" d="M390.27,-107C372.9,-107 354.1,-107 338.02,-107"/>
<polygon fill="#555555" stroke="#555555" points="337.85,-104.55 330.85,-107 337.85,-109.45 337.85,-104.55"/>
<text text-anchor="middle" x="360.5" y="-112.8" font-family="Helvetica,sans-Serif" font-size="9.00">type</text>
</g>
<!-- md -->
<g id="node3" class="node">
<title>md</title>
<path fill="#eef7e8" stroke="#333333" d="M130,-125C130,-125 74,-125 74,-125 68,-125 62,-119 62,-113 62,-113 62,-101 62,-101 62,-95 68,-89 74,-89 74,-89 130,-89 130,-89 136,-89 142,-95 142,-101 142,-101 142,-113 142,-113 142,-119 136,-125 130,-125"/>
<text text-anchor="middle" x="102" y="-104.2" font-family="Helvetica,sans-Serif" font-size="11.00">metadata</text>
</g>
<!-- md&#45;&gt;qb -->
<g id="edge2" class="edge">
<title>md&#45;&gt;qb</title>
<path fill="none" stroke="#555555" d="M122.84,-88.9C132.39,-81.94 144.2,-74.48 156,-70 219.63,-45.81 298.03,-38.08 350.11,-35.74"/>
<polygon fill="#555555" stroke="#555555" points="350.38,-38.18 357.28,-35.45 350.18,-33.29 350.38,-38.18"/>
</g>
<!-- dec -->
<g id="node4" class="node">
<title>dec</title>
<path fill="#eef7e8" stroke="#333333" d="M126,-215C126,-215 64,-215 64,-215 58,-215 52,-209 52,-203 52,-203 52,-191 52,-191 52,-185 58,-179 64,-179 64,-179 126,-179 126,-179 132,-179 138,-185 138,-191 138,-191 138,-203 138,-203 138,-209 132,-215 126,-215"/>
<text text-anchor="middle" x="95" y="-194.2" font-family="Helvetica,sans-Serif" font-size="11.00">decorators</text>
</g>
<!-- dec&#45;&gt;md -->
<g id="edge4" class="edge">
<title>dec&#45;&gt;md</title>
<path fill="none" stroke="#555555" d="M96.38,-178.61C97.43,-165.39 98.9,-147.03 100.06,-132.35"/>
<polygon fill="#555555" stroke="#555555" points="102.53,-132.22 100.64,-125.05 97.65,-131.83 102.53,-132.22"/>
</g>
<!-- mdl -->
<g id="node6" class="node">
<title>mdl</title>
<path fill="#fde7ef" stroke="#333333" d="M222,-215C222,-215 186,-215 186,-215 180,-215 174,-209 174,-203 174,-203 174,-191 174,-191 174,-185 180,-179 186,-179 186,-179 222,-179 222,-179 228,-179 234,-185 234,-191 234,-191 234,-203 234,-203 234,-209 228,-215 222,-215"/>
<text text-anchor="middle" x="204" y="-194.2" font-family="Helvetica,sans-Serif" font-size="11.00">model</text>
</g>
<!-- dec&#45;&gt;mdl -->
<g id="edge5" class="edge">
<title>dec&#45;&gt;mdl</title>
<path fill="none" stroke="#555555" d="M138,-197C147.52,-197 157.04,-197 166.56,-197"/>
<polygon fill="#555555" stroke="#555555" points="166.84,-199.45 173.84,-197 166.84,-194.55 166.84,-199.45"/>
</g>
<!-- drv&#45;&gt;qb -->
<g id="edge3" class="edge">
<title>drv&#45;&gt;qb</title>
<path fill="none" stroke="#555555" d="M320.85,-88.9C329.27,-82.77 338.96,-75.92 348,-70 355.24,-65.26 363.12,-60.39 370.7,-55.85"/>
<polygon fill="#555555" stroke="#555555" points="372.21,-57.8 376.97,-52.12 369.7,-53.59 372.21,-57.8"/>
</g>
<!-- drv&#45;&gt;sb -->
<g id="edge15" class="edge">
<title>drv&#45;&gt;sb</title>
<path fill="none" stroke="#555555" stroke-dasharray="5,2" d="M330.85,-107C346.26,-107 365.16,-107 383.16,-107"/>
<polygon fill="#555555" stroke="#555555" points="383.27,-109.45 390.27,-107 383.27,-104.55 383.27,-109.45"/>
<text text-anchor="middle" x="360.5" y="-112.8" font-family="Helvetica,sans-Serif" font-size="9.00">type</text>
</g>
<!-- mdl&#45;&gt;qb -->
<g id="edge8" class="edge">
<title>mdl&#45;&gt;qb</title>
<path fill="none" stroke="#555555" d="M193.44,-178.68C179.99,-154.14 161.09,-109.12 184,-81 204.6,-55.71 291.33,-43.91 350.35,-38.72"/>
<polygon fill="#555555" stroke="#555555" points="350.64,-41.15 357.41,-38.12 350.22,-36.27 350.64,-41.15"/>
</g>
<!-- mdl&#45;&gt;md -->
<g id="edge7" class="edge">
<title>mdl&#45;&gt;md</title>
<path fill="none" stroke="#555555" d="M179.05,-178.86C171.47,-173.38 163.24,-167.13 156,-161 144.84,-151.54 133.17,-140.28 123.54,-130.58"/>
<polygon fill="#555555" stroke="#555555" points="125.08,-128.64 118.42,-125.37 121.58,-132.08 125.08,-128.64"/>
</g>
<!-- mdl&#45;&gt;drv -->
<g id="edge6" class="edge">
<title>mdl&#45;&gt;drv</title>
<path fill="none" stroke="#555555" d="M222.57,-178.61C237.47,-164.66 258.48,-144.99 274.55,-129.96"/>
<polygon fill="#555555" stroke="#555555" points="276.35,-131.62 279.79,-125.05 273,-128.05 276.35,-131.62"/>
</g>
<!-- mig -->
<g id="node7" class="node">
<title>mig</title>
<path fill="#f3e8fd" stroke="#333333" d="M394.5,-215C394.5,-215 333.5,-215 333.5,-215 327.5,-215 321.5,-209 321.5,-203 321.5,-203 321.5,-191 321.5,-191 321.5,-185 327.5,-179 333.5,-179 333.5,-179 394.5,-179 394.5,-179 400.5,-179 406.5,-185 406.5,-191 406.5,-191 406.5,-203 406.5,-203 406.5,-209 400.5,-215 394.5,-215"/>
<text text-anchor="middle" x="364" y="-194.2" font-family="Helvetica,sans-Serif" font-size="11.00">migrations</text>
</g>
<!-- mig&#45;&gt;qb -->
<g id="edge10" class="edge">
<title>mig&#45;&gt;qb</title>
<path fill="none" stroke="#555555" d="M364.86,-178.81C366.41,-155.94 370.66,-114.5 382,-81 384.59,-73.35 388.39,-65.48 392.25,-58.45"/>
<polygon fill="#555555" stroke="#555555" points="394.44,-59.56 395.78,-52.26 390.18,-57.13 394.44,-59.56"/>
</g>
<!-- mig&#45;&gt;sb -->
<g id="edge11" class="edge">
<title>mig&#45;&gt;sb</title>
<path fill="none" stroke="#555555" d="M380.2,-178.61C393.09,-164.78 411.21,-145.34 425.17,-130.35"/>
<polygon fill="#555555" stroke="#555555" points="427.13,-131.84 430.11,-125.05 423.55,-128.5 427.13,-131.84"/>
</g>
<!-- mig&#45;&gt;drv -->
<g id="edge9" class="edge">
<title>mig&#45;&gt;drv</title>
<path fill="none" stroke="#555555" d="M350.96,-178.61C340.68,-164.91 326.26,-145.68 315.06,-130.75"/>
<polygon fill="#555555" stroke="#555555" points="316.95,-129.18 310.79,-125.05 313.03,-132.12 316.95,-129.18"/>
</g>
<!-- cli -->
<g id="node8" class="node">
<title>cli</title>
<path fill="#f3e8fd" stroke="#333333" d="M345,-305C345,-305 315,-305 315,-305 309,-305 303,-299 303,-293 303,-293 303,-281 303,-281 303,-275 309,-269 315,-269 315,-269 345,-269 345,-269 351,-269 357,-275 357,-281 357,-281 357,-293 357,-293 357,-299 351,-305 345,-305"/>
<text text-anchor="middle" x="330" y="-284.2" font-family="Helvetica,sans-Serif" font-size="11.00">cli</text>
</g>
<!-- cli&#45;&gt;drv -->
<g id="edge12" class="edge">
<title>cli&#45;&gt;drv</title>
<path fill="none" stroke="#555555" d="M322.16,-268.78C318.83,-260.79 315.22,-251.07 313,-242 303.79,-204.38 300.22,-159.42 298.85,-132.32"/>
<polygon fill="#555555" stroke="#555555" points="301.29,-132.05 298.51,-125.17 296.39,-132.27 301.29,-132.05"/>
</g>
<!-- cli&#45;&gt;mig -->
<g id="edge13" class="edge">
<title>cli&#45;&gt;mig</title>
<path fill="none" stroke="#555555" d="M336.72,-268.61C341.87,-255.27 349.05,-236.69 354.75,-221.94"/>
<polygon fill="#555555" stroke="#555555" points="357.17,-222.46 357.41,-215.05 352.6,-220.7 357.17,-222.46"/>
</g>
</g>
</svg>
