<?xml version="1.0" encoding="UTF-8" standalone="no"?>
<!DOCTYPE svg PUBLIC "-//W3C//DTD SVG 1.1//EN"
 "http://www.w3.org/Graphics/SVG/1.1/DTD/svg11.dtd">
<!-- Generated by graphviz version 2.43.0 (0)
 -->
<!-- Title: tx_sequence Pages: 1 -->
<svg width="624pt" height="548pt"
 viewBox="0.00 0.00 624.00 548.00" xmlns="http://www.w3.org/2000/svg" xmlns:xlink="http://www.w3.org/1999/xlink">
<g id="graph0" class="graph" transform="scale(1 1) rotate(0) translate(4 544)">
<title>tx_sequence</title>
<polygon fill="white" stroke="transparent" points="-4,4 -4,-544 620,-544 620,4 -4,4"/>
<!-- header -->
<g id="node1" class="node">
<title>header</title>
<polygon fill="#eeeeee" stroke="transparent" points="8,-509.5 8,-534.5 608,-534.5 608,-509.5 8,-509.5"/>
<polygon fill="none" stroke="black" points="8,-509 8,-534 288,-534 288,-509 8,-509"/>
<text text-anchor="start" x="107" y="-520" font-family="Helvetica,sans-Serif" font-weight="bold" font-size="10.00">Виклик у коді</text>
<polygon fill="none" stroke="black" points="288,-509 288,-534 608,-534 608,-509 288,-509"/>
<text text-anchor="start" x="381" y="-520" font-family="Helvetica,sans-Serif" font-weight="bold" font-size="10.00">SQL у pinned&#45;з&#39;єднанні</text>
</g>
<!-- step1 -->
<g id="node2" class="node">
<title>step1</title>
<polygon fill="#fde7ef" stroke="transparent" points="8,-437 8,-462 288,-462 288,-437 8,-437"/>
<polygon fill="none" stroke="black" points="8,-437 8,-462 288,-462 288,-437 8,-437"/>
<text text-anchor="start" x="15" y="-447" font-family="Helvetica,sans-Serif" font-size="10.00">ds.transaction(async () =&gt; { … })</text>
<polygon fill="#fff5d6" stroke="transparent" points="288,-437 288,-462 608,-462 608,-437 288,-437"/>
<polygon fill="none" stroke="black" points="288,-437 288,-462 608,-462 608,-437 288,-437"/>
<text text-anchor="start" x="295" y="-447" font-family="Helvetica,sans-Serif" font-size="10.00">BEGIN</text>
</g>
<!-- header&#45;&gt;step1 -->
<g id="edge1" class="edge">
<title>header&#45;&gt;step1</title>
<path fill="none" stroke="#888888" d="M308,-503.7C308,-494.8 308,-483.82 308,-474.2"/>
<polygon fill="#888888" stroke="#888888" points="310.1,-474.1 308,-468.1 305.9,-474.1 310.1,-474.1"/>
</g>
<!-- step2 -->
<g id="node3" class="node">
<title>step2</title>
<polygon fill="#e7f0ff" stroke="transparent" points="8,-365 8,-390 288,-390 288,-365 8,-365"/>
<polygon fill="none" stroke="black" points="8,-365 8,-390 288,-390 288,-365 8,-365"/>
<text text-anchor="start" x="15" y="-376" font-family="Helvetica,sans-Serif" font-size="10.00"> &#160;await user.save() &#160;</text>
<text text-anchor="start" x="112" y="-376" font-family="Helvetica,sans-Serif" font-style="italic" font-size="10.00">// AR</text>
<polygon fill="#fff5d6" stroke="transparent" points="288,-365 288,-390 608,-390 608,-365 288,-365"/>
<polygon fill="none" stroke="black" points="288,-365 288,-390 608,-390 608,-365 288,-365"/>
<text text-anchor="start" x="295" y="-375" font-family="Helvetica,sans-Serif" font-size="10.00">INSERT INTO users …</text>
</g>
<!-- step1&#45;&gt;step2 -->
<g id="edge2" class="edge">
<title>step1&#45;&gt;step2</title>
<path fill="none" stroke="#888888" d="M308,-431.7C308,-422.8 308,-411.82 308,-402.2"/>
<polygon fill="#888888" stroke="#888888" points="310.1,-402.1 308,-396.1 305.9,-402.1 310.1,-402.1"/>
</g>
<!-- step3 -->
<g id="node4" class="node">
<title>step3</title>
<polygon fill="#fde7ef" stroke="transparent" points="8,-293 8,-318 288,-318 288,-293 8,-293"/>
<polygon fill="none" stroke="black" points="8,-293 8,-318 288,-318 288,-293 8,-293"/>
<text text-anchor="start" x="15" y="-303" font-family="Helvetica,sans-Serif" font-size="10.00"> &#160;await ds.transaction(async () =&gt; { … })</text>
<polygon fill="#fff5d6" stroke="transparent" points="288,-293 288,-318 608,-318 608,-293 288,-293"/>
<polygon fill="none" stroke="black" points="288,-293 288,-318 608,-318 608,-293 288,-293"/>
<text text-anchor="start" x="295" y="-303" font-family="Helvetica,sans-Serif" font-size="10.00">SAVEPOINT sp_1</text>
</g>
<!-- step2&#45;&gt;step3 -->
<g id="edge3" class="edge">
<title>step2&#45;&gt;step3</title>
<path fill="none" stroke="#888888" d="M308,-359.7C308,-350.8 308,-339.82 308,-330.2"/>
<polygon fill="#888888" stroke="#888888" points="310.1,-330.1 308,-324.1 305.9,-330.1 310.1,-330.1"/>
</g>
<!-- step4 -->
<g id="node5" class="node">
<title>step4</title>
<polygon fill="#f3e8fd" stroke="transparent" points="8,-221 8,-246 288,-246 288,-221 8,-221"/>
<polygon fill="none" stroke="black" points="8,-221 8,-246 288,-246 288,-221 8,-221"/>
<text text-anchor="start" x="15" y="-232" font-family="Helvetica,sans-Serif" font-size="10.00"> &#160;&#160;&#160;await postsRepo.save(post) &#160;</text>
<text text-anchor="start" x="169" y="-232" font-family="Helvetica,sans-Serif" font-style="italic" font-size="10.00">// Repo</text>
<polygon fill="#fff5d6" stroke="transparent" points="288,-221 288,-246 608,-246 608,-221 288,-221"/>
<polygon fill="none" stroke="black" points="288,-221 288,-246 608,-246 608,-221 288,-221"/>
<text text-anchor="start" x="295" y="-231" font-family="Helvetica,sans-Serif" font-size="10.00">INSERT INTO posts …</text>
</g>
<!-- step3&#45;&gt;step4 -->
<g id="edge4" class="edge">
<title>step3&#45;&gt;step4</title>
<path fill="none" stroke="#888888" d="M308,-287.7C308,-278.8 308,-267.82 308,-258.2"/>
<polygon fill="#888888" stroke="#888888" points="310.1,-258.1 308,-252.1 305.9,-258.1 310.1,-258.1"/>
</g>
<!-- step5 -->
<g id="node6" class="node">
<title>step5</title>
<polygon fill="#fde7ef" stroke="transparent" points="8,-149 8,-174 288,-174 288,-149 8,-149"/>
<polygon fill="none" stroke="black" points="8,-149 8,-174 288,-174 288,-149 8,-149"/>
<text text-anchor="start" x="15" y="-160" font-family="Helvetica,sans-Serif" font-size="10.00"> &#160;}) &#160;</text>
<text text-anchor="start" x="37" y="-160" font-family="Helvetica,sans-Serif" font-style="italic" font-size="10.00">// nested success</text>
<polygon fill="#fff5d6" stroke="transparent" points="288,-149 288,-174 608,-174 608,-149 288,-149"/>
<polygon fill="none" stroke="black" points="288,-149 288,-174 608,-174 608,-149 288,-149"/>
<text text-anchor="start" x="295" y="-159" font-family="Helvetica,sans-Serif" font-size="10.00">RELEASE SAVEPOINT sp_1</text>
</g>
<!-- step4&#45;&gt;step5 -->
<g id="edge5" class="edge">
<title>step4&#45;&gt;step5</title>
<path fill="none" stroke="#888888" d="M308,-215.7C308,-206.8 308,-195.82 308,-186.2"/>
<polygon fill="#888888" stroke="#888888" points="310.1,-186.1 308,-180.1 305.9,-186.1 310.1,-186.1"/>
</g>
<!-- step6 -->
<g id="node7" class="node">
<title>step6</title>
<polygon fill="#f3e8fd" stroke="transparent" points="8,-77 8,-102 288,-102 288,-77 8,-77"/>
<polygon fill="none" stroke="black" points="8,-77 8,-102 288,-102 288,-77 8,-77"/>
<text text-anchor="start" x="15" y="-88" font-family="Helvetica,sans-Serif" font-size="10.00"> &#160;await commentsRepo.save(c) &#160;</text>
<text text-anchor="start" x="173" y="-88" font-family="Helvetica,sans-Serif" font-style="italic" font-size="10.00">// Repo</text>
<polygon fill="#fff5d6" stroke="transparent" points="288,-77 288,-102 608,-102 608,-77 288,-77"/>
<polygon fill="none" stroke="black" points="288,-77 288,-102 608,-102 608,-77 288,-77"/>
<text text-anchor="start" x="295" y="-87" font-family="Helvetica,sans-Serif" font-size="10.00">INSERT INTO comments …</text>
</g>
<!-- step5&#45;&gt;step6 -->
<g id="edge6" class="edge">
<title>step5&#45;&gt;step6</title>
<path fill="none" stroke="#888888" d="M308,-143.7C308,-134.8 308,-123.82 308,-114.2"/>
<polygon fill="#888888" stroke="#888888" points="310.1,-114.1 308,-108.1 305.9,-114.1 310.1,-114.1"/>
</g>
<!-- step7 -->
<g id="node8" class="node">
<title>step7</title>
<polygon fill="#fde7ef" stroke="transparent" points="8,-5 8,-30 288,-30 288,-5 8,-5"/>
<polygon fill="none" stroke="black" points="8,-5 8,-30 288,-30 288,-5 8,-5"/>
<text text-anchor="start" x="15" y="-16" font-family="Helvetica,sans-Serif" font-size="10.00">}) &#160;</text>
<text text-anchor="start" x="31" y="-16" font-family="Helvetica,sans-Serif" font-style="italic" font-size="10.00">// outer success</text>
<polygon fill="#fff5d6" stroke="transparent" points="288,-5 288,-30 608,-30 608,-5 288,-5"/>
<polygon fill="none" stroke="black" points="288,-5 288,-30 608,-30 608,-5 288,-5"/>
<text text-anchor="start" x="295" y="-15" font-family="Helvetica,sans-Serif" font-size="10.00">COMMIT</text>
</g>
<!-- step6&#45;&gt;step7 -->
<g id="edge7" class="edge">
<title>step6&#45;&gt;step7</title>
<path fill="none" stroke="#888888" d="M308,-71.7C308,-62.8 308,-51.82 308,-42.2"/>
<polygon fill="#888888" stroke="#888888" points="310.1,-42.1 308,-36.1 305.9,-42.1 310.1,-42.1"/>
</g>
</g>
</svg>
