<?xml version="1.0" encoding="UTF-8" standalone="no"?>
<!DOCTYPE svg PUBLIC "-//W3C//DTD SVG 1.1//EN"
 "http://www.w3.org/Graphics/SVG/1.1/DTD/svg11.dtd">
<!-- Generated by graphviz version 2.43.0 (0)
 -->
<!-- Title: stash_flush Pages: 1 -->
<svg width="598pt" height="493pt"
 viewBox="0.00 0.00 597.50 492.50" xmlns="http://www.w3.org/2000/svg" xmlns:xlink="http://www.w3.org/1999/xlink">
<g id="graph0" class="graph" transform="scale(1 1) rotate(0) translate(4 488.5)">
<title>stash_flush</title>
<polygon fill="white" stroke="transparent" points="-4,4 -4,-488.5 593.5,-488.5 593.5,4 -4,4"/>
<g id="clust1" class="cluster">
<title>cluster_phase1</title>
<path fill="white" stroke="#3a6fb3" stroke-dasharray="5,2" d="M20,-243.5C20,-243.5 330,-243.5 330,-243.5 336,-243.5 342,-249.5 342,-255.5 342,-255.5 342,-376.5 342,-376.5 342,-382.5 336,-388.5 330,-388.5 330,-388.5 20,-388.5 20,-388.5 14,-388.5 8,-382.5 8,-376.5 8,-376.5 8,-255.5 8,-255.5 8,-249.5 14,-243.5 20,-243.5"/>
<text text-anchor="middle" x="160" y="-375.7" font-family="Helvetica,sans-Serif" font-size="11.00">Фаза 1: stash — спрацьовують декоратори полів</text>
</g>
<g id="clust2" class="cluster">
<title>cluster_phase2</title>
<path fill="white" stroke="#7a4ea3" stroke-dasharray="5,2" d="M308,-65C308,-65 564,-65 564,-65 570,-65 576,-71 576,-77 576,-77 576,-212.5 576,-212.5 576,-218.5 570,-224.5 564,-224.5 564,-224.5 308,-224.5 308,-224.5 302,-224.5 296,-218.5 296,-212.5 296,-212.5 296,-77 296,-77 296,-71 302,-65 308,-65"/>
<text text-anchor="middle" x="435" y="-211.7" font-family="Helvetica,sans-Serif" font-size="11.00">Фаза 2: flush — спрацьовує декоратор класу</text>
</g>
<!-- source -->
<g id="node1" class="node">
<title>source</title>
<path fill="#ffffff" stroke="#888888" d="M226.5,-484.5C226.5,-484.5 123.5,-484.5 123.5,-484.5 117.5,-484.5 111.5,-478.5 111.5,-472.5 111.5,-472.5 111.5,-427.5 111.5,-427.5 111.5,-421.5 117.5,-415.5 123.5,-415.5 123.5,-415.5 226.5,-415.5 226.5,-415.5 232.5,-415.5 238.5,-421.5 238.5,-427.5 238.5,-427.5 238.5,-472.5 238.5,-472.5 238.5,-478.5 232.5,-484.5 226.5,-484.5"/>
<text text-anchor="middle" x="175" y="-469.5" font-family="Helvetica,sans-Serif" font-size="10.00">class User {</text>
<text text-anchor="middle" x="175" y="-458.5" font-family="Helvetica,sans-Serif" font-size="10.00"> &#160;@PrimaryKey id</text>
<text text-anchor="middle" x="175" y="-447.5" font-family="Helvetica,sans-Serif" font-size="10.00"> &#160;@Column &#160;&#160;email</text>
<text text-anchor="middle" x="175" y="-436.5" font-family="Helvetica,sans-Serif" font-size="10.00"> &#160;@OneToMany posts</text>
<text text-anchor="middle" x="175" y="-425.5" font-family="Helvetica,sans-Serif" font-size="10.00">}</text>
</g>
<!-- fdec -->
<g id="node2" class="node">
<title>fdec</title>
<path fill="#e7f0ff" stroke="#333333" d="M321.5,-360.5C321.5,-360.5 28.5,-360.5 28.5,-360.5 22.5,-360.5 16.5,-354.5 16.5,-348.5 16.5,-348.5 16.5,-336.5 16.5,-336.5 16.5,-330.5 22.5,-324.5 28.5,-324.5 28.5,-324.5 321.5,-324.5 321.5,-324.5 327.5,-324.5 333.5,-330.5 333.5,-336.5 333.5,-336.5 333.5,-348.5 333.5,-348.5 333.5,-354.5 327.5,-360.5 321.5,-360.5"/>
<text text-anchor="middle" x="175" y="-340" font-family="Helvetica,sans-Serif" font-size="10.00">@Column · @PrimaryKey · @OneToMany · @ManyToOne · …</text>
</g>
<!-- source&#45;&gt;fdec -->
<g id="edge1" class="edge">
<title>source&#45;&gt;fdec</title>
<path fill="none" stroke="#666666" d="M175,-415.33C175,-399.96 175,-382.1 175,-368.03"/>
<polygon fill="#666666" stroke="#666666" points="177.45,-367.65 175,-360.65 172.55,-367.65 177.45,-367.65"/>
</g>
<!-- edec -->
<g id="node5" class="node">
<title>edec</title>
<path fill="#f3e8fd" stroke="#333333" d="M480,-196.5C480,-196.5 392,-196.5 392,-196.5 386,-196.5 380,-190.5 380,-184.5 380,-184.5 380,-172.5 380,-172.5 380,-166.5 386,-160.5 392,-160.5 392,-160.5 480,-160.5 480,-160.5 486,-160.5 492,-166.5 492,-172.5 492,-172.5 492,-184.5 492,-184.5 492,-190.5 486,-196.5 480,-196.5"/>
<text text-anchor="middle" x="436" y="-176" font-family="Helvetica,sans-Serif" font-size="10.00">@Entity(options?)</text>
</g>
<!-- source&#45;&gt;edec -->
<g id="edge4" class="edge">
<title>source&#45;&gt;edec</title>
<path fill="none" stroke="#aaaaaa" stroke-dasharray="1,5" d="M238.84,-439.31C274.15,-431.04 316.68,-415.93 346,-388.5 400.82,-337.22 423.84,-246.92 432.07,-203.78"/>
<polygon fill="#aaaaaa" stroke="#aaaaaa" points="434.5,-204.11 433.35,-196.78 429.68,-203.23 434.5,-204.11"/>
</g>
<!-- stash -->
<g id="node3" class="node">
<title>stash</title>
<path fill="#dde7f7" stroke="#333333" d="M282,-287.5C282,-287.5 68,-287.5 68,-287.5 62,-287.5 56,-281.5 56,-275.5 56,-275.5 56,-263.5 56,-263.5 56,-257.5 62,-251.5 68,-251.5 68,-251.5 282,-251.5 282,-251.5 288,-251.5 294,-257.5 294,-263.5 294,-263.5 294,-275.5 294,-275.5 294,-281.5 288,-287.5 282,-287.5"/>
<text text-anchor="middle" x="175" y="-272.5" font-family="Helvetica,sans-Serif" font-size="10.00">stashColumn / stashRelation</text>
<text text-anchor="middle" x="175" y="-261.5" font-family="Helvetica,sans-Serif" font-size="10.00">(context.metadata, propertyName, options)</text>
</g>
<!-- fdec&#45;&gt;stash -->
<g id="edge2" class="edge">
<title>fdec&#45;&gt;stash</title>
<path fill="none" stroke="#666666" d="M175,-324.31C175,-315.42 175,-304.41 175,-294.67"/>
<polygon fill="#666666" stroke="#666666" points="177.45,-294.53 175,-287.53 172.55,-294.53 177.45,-294.53"/>
</g>
<!-- bag -->
<g id="node4" class="node">
<title>bag</title>
<path fill="#fff7d6" stroke="#a87000" d="M276,-202C276,-202 74,-202 74,-202 68,-202 62,-196 62,-190 62,-190 62,-167 62,-167 62,-161 68,-155 74,-155 74,-155 276,-155 276,-155 282,-155 288,-161 288,-167 288,-167 288,-190 288,-190 288,-196 282,-202 276,-202"/>
<text text-anchor="middle" x="175" y="-187" font-family="Helvetica,sans-Serif" font-size="10.00">context.metadata (PendingBag)</text>
<text text-anchor="middle" x="175" y="-176" font-family="Helvetica,sans-Serif" font-size="10.00">• Map&lt;propertyName, ColumnOptions&gt;</text>
<text text-anchor="middle" x="175" y="-165" font-family="Helvetica,sans-Serif" font-size="10.00">• Map&lt;propertyName, RelationOptions&gt;</text>
</g>
<!-- stash&#45;&gt;bag -->
<g id="edge3" class="edge">
<title>stash&#45;&gt;bag</title>
<path fill="none" stroke="#666666" d="M175,-251.34C175,-239.38 175,-223.12 175,-209.1"/>
<polygon fill="#666666" stroke="#666666" points="177.45,-209 175,-202 172.55,-209 177.45,-209"/>
</g>
<!-- flush -->
<g id="node6" class="node">
<title>flush</title>
<path fill="#e8d4f5" stroke="#333333" d="M555.5,-109C555.5,-109 316.5,-109 316.5,-109 310.5,-109 304.5,-103 304.5,-97 304.5,-97 304.5,-85 304.5,-85 304.5,-79 310.5,-73 316.5,-73 316.5,-73 555.5,-73 555.5,-73 561.5,-73 567.5,-79 567.5,-85 567.5,-85 567.5,-97 567.5,-97 567.5,-103 561.5,-109 555.5,-109"/>
<text text-anchor="middle" x="436" y="-88.5" font-family="Helvetica,sans-Serif" font-size="10.00">flushPendingMetadata(target, context.metadata)</text>
</g>
<!-- bag&#45;&gt;flush -->
<g id="edge6" class="edge">
<title>bag&#45;&gt;flush</title>
<path fill="none" stroke="#666666" stroke-dasharray="5,2" d="M243.92,-154.92C285.46,-141.31 337.81,-124.16 377.37,-111.21"/>
<polygon fill="#666666" stroke="#666666" points="378.21,-113.51 384.1,-109 376.68,-108.85 378.21,-113.51"/>
<text text-anchor="middle" x="342" y="-129.8" font-family="Helvetica,sans-Serif" font-size="9.00">читає</text>
</g>
<!-- edec&#45;&gt;flush -->
<g id="edge5" class="edge">
<title>edec&#45;&gt;flush</title>
<path fill="none" stroke="#666666" d="M436,-160.2C436,-147.68 436,-130.59 436,-116.65"/>
<polygon fill="#666666" stroke="#666666" points="438.45,-116.28 436,-109.28 433.55,-116.28 438.45,-116.28"/>
</g>
<!-- storage -->
<g id="node7" class="node">
<title>storage</title>
<path fill="#eef7e8" stroke="#3f7a3f" d="M577.5,-36C577.5,-36 294.5,-36 294.5,-36 288.5,-36 282.5,-30 282.5,-24 282.5,-24 282.5,-12 282.5,-12 282.5,-6 288.5,0 294.5,0 294.5,0 577.5,0 577.5,0 583.5,0 589.5,-6 589.5,-12 589.5,-12 589.5,-24 589.5,-24 589.5,-30 583.5,-36 577.5,-36"/>
<text text-anchor="middle" x="436" y="-21" font-family="Helvetica,sans-Serif" font-size="10.00">defaultMetadataStorage</text>
<text text-anchor="middle" x="436" y="-10" font-family="Helvetica,sans-Serif" font-size="10.00">registerColumn × N · registerRelation × M · registerEntity</text>
</g>
<!-- flush&#45;&gt;storage -->
<g id="edge7" class="edge">
<title>flush&#45;&gt;storage</title>
<path fill="none" stroke="#666666" d="M436,-72.81C436,-63.92 436,-52.91 436,-43.17"/>
<polygon fill="#666666" stroke="#666666" points="438.45,-43.03 436,-36.03 433.55,-43.03 438.45,-43.03"/>
</g>
</g>
</svg>
