<?xml version="1.0" encoding="UTF-8" standalone="no"?>
<!DOCTYPE svg PUBLIC "-//W3C//DTD SVG 1.1//EN"
 "http://www.w3.org/Graphics/SVG/1.1/DTD/svg11.dtd">
<!-- Generated by graphviz version 2.43.0 (0)
 -->
<!-- Title: src_tree Pages: 1 -->
<svg width="398pt" height="1016pt"
 viewBox="0.00 0.00 398.00 1016.00" xmlns="http://www.w3.org/2000/svg" xmlns:xlink="http://www.w3.org/1999/xlink">
<g id="graph0" class="graph" transform="scale(1 1) rotate(0) translate(4 1012)">
<title>src_tree</title>
<polygon fill="white" stroke="transparent" points="-4,4 -4,-1012 394,-1012 394,4 -4,4"/>
<!-- src -->
<g id="node1" class="node">
<title>src</title>
<path fill="#e0e7ff" stroke="black" d="M42,-454C42,-454 12,-454 12,-454 6,-454 0,-448 0,-442 0,-442 0,-430 0,-430 0,-424 6,-418 12,-418 12,-418 42,-418 42,-418 48,-418 54,-424 54,-430 54,-430 54,-442 54,-442 54,-448 48,-454 42,-454"/>
<text text-anchor="middle" x="27" y="-432.9" font-family="Helvetica,sans-Serif" font-size="12.00">src/</text>
</g>
<!-- cli -->
<g id="node2" class="node">
<title>cli</title>
<path fill="#fff5d6" stroke="black" d="M157.5,-954C157.5,-954 127.5,-954 127.5,-954 121.5,-954 115.5,-948 115.5,-942 115.5,-942 115.5,-930 115.5,-930 115.5,-924 121.5,-918 127.5,-918 127.5,-918 157.5,-918 157.5,-918 163.5,-918 169.5,-924 169.5,-930 169.5,-930 169.5,-942 169.5,-942 169.5,-948 163.5,-954 157.5,-954"/>
<text text-anchor="middle" x="142.5" y="-933.5" font-family="Helvetica,sans-Serif" font-size="10.00">cli/</text>
</g>
<!-- src&#45;&gt;cli -->
<g id="edge1" class="edge">
<title>src&#45;&gt;cli</title>
<path fill="none" stroke="#888888" stroke-width="0.9" d="M28.02,-454.23C28.65,-513.82 35.06,-707.54 90,-855 97.98,-876.41 112.18,-898.12 123.66,-913.67"/>
<polygon fill="#888888" stroke="#888888" stroke-width="0.9" points="122.41,-914.93 126.81,-917.89 125.22,-912.83 122.41,-914.93"/>
</g>
<!-- decorators -->
<g id="node3" class="node">
<title>decorators</title>
<path fill="#fde7ef" stroke="black" d="M171,-846C171,-846 114,-846 114,-846 108,-846 102,-840 102,-834 102,-834 102,-822 102,-822 102,-816 108,-810 114,-810 114,-810 171,-810 171,-810 177,-810 183,-816 183,-822 183,-822 183,-834 183,-834 183,-840 177,-846 171,-846"/>
<text text-anchor="middle" x="142.5" y="-825.5" font-family="Helvetica,sans-Serif" font-size="10.00">decorators/</text>
</g>
<!-- src&#45;&gt;decorators -->
<g id="edge2" class="edge">
<title>src&#45;&gt;decorators</title>
<path fill="none" stroke="#888888" stroke-width="0.9" d="M31.57,-454.29C40.04,-496.7 62.69,-604.88 90,-693 102.45,-733.15 120.66,-778.58 131.77,-805.18"/>
<polygon fill="#888888" stroke="#888888" stroke-width="0.9" points="130.21,-805.98 133.75,-809.92 133.43,-804.63 130.21,-805.98"/>
</g>
<!-- drivers -->
<g id="node4" class="node">
<title>drivers</title>
<path fill="#e7f0ff" stroke="black" d="M162,-684C162,-684 123,-684 123,-684 117,-684 111,-678 111,-672 111,-672 111,-660 111,-660 111,-654 117,-648 123,-648 123,-648 162,-648 162,-648 168,-648 174,-654 174,-660 174,-660 174,-672 174,-672 174,-678 168,-684 162,-684"/>
<text text-anchor="middle" x="142.5" y="-663.5" font-family="Helvetica,sans-Serif" font-size="10.00">drivers/</text>
</g>
<!-- src&#45;&gt;drivers -->
<g id="edge3" class="edge">
<title>src&#45;&gt;drivers</title>
<path fill="none" stroke="#888888" stroke-width="0.9" d="M36.91,-454.05C57.37,-495.51 107.7,-597.52 130.26,-643.21"/>
<polygon fill="#888888" stroke="#888888" stroke-width="0.9" points="128.7,-644.01 132.48,-647.72 131.83,-642.46 128.7,-644.01"/>
</g>
<!-- metadata -->
<g id="node5" class="node">
<title>metadata</title>
<path fill="#f3e8fd" stroke="black" d="M169,-515C169,-515 116,-515 116,-515 110,-515 104,-509 104,-503 104,-503 104,-491 104,-491 104,-485 110,-479 116,-479 116,-479 169,-479 169,-479 175,-479 181,-485 181,-491 181,-491 181,-503 181,-503 181,-509 175,-515 169,-515"/>
<text text-anchor="middle" x="142.5" y="-494.5" font-family="Helvetica,sans-Serif" font-size="10.00">metadata/</text>
</g>
<!-- src&#45;&gt;metadata -->
<g id="edge4" class="edge">
<title>src&#45;&gt;metadata</title>
<path fill="none" stroke="#888888" stroke-width="0.9" d="M54.04,-449.99C68.64,-457.84 87.11,-467.77 103.32,-476.48"/>
<polygon fill="#888888" stroke="#888888" stroke-width="0.9" points="102.59,-478.07 107.82,-478.9 104.25,-474.99 102.59,-478.07"/>
</g>
<!-- migrations -->
<g id="node6" class="node">
<title>migrations</title>
<path fill="#fff5d6" stroke="black" d="M171.5,-454C171.5,-454 113.5,-454 113.5,-454 107.5,-454 101.5,-448 101.5,-442 101.5,-442 101.5,-430 101.5,-430 101.5,-424 107.5,-418 113.5,-418 113.5,-418 171.5,-418 171.5,-418 177.5,-418 183.5,-424 183.5,-430 183.5,-430 183.5,-442 183.5,-442 183.5,-448 177.5,-454 171.5,-454"/>
<text text-anchor="middle" x="142.5" y="-433.5" font-family="Helvetica,sans-Serif" font-size="10.00">migrations/</text>
</g>
<!-- src&#45;&gt;migrations -->
<g id="edge5" class="edge">
<title>src&#45;&gt;migrations</title>
<path fill="none" stroke="#888888" stroke-width="0.9" d="M54.04,-436C66.51,-436 81.82,-436 96.12,-436"/>
<polygon fill="#888888" stroke="#888888" stroke-width="0.9" points="96.34,-437.75 101.34,-436 96.34,-434.25 96.34,-437.75"/>
</g>
<!-- model -->
<g id="node7" class="node">
<title>model</title>
<path fill="#fde7ef" stroke="black" d="M160.5,-387C160.5,-387 124.5,-387 124.5,-387 118.5,-387 112.5,-381 112.5,-375 112.5,-375 112.5,-363 112.5,-363 112.5,-357 118.5,-351 124.5,-351 124.5,-351 160.5,-351 160.5,-351 166.5,-351 172.5,-357 172.5,-363 172.5,-363 172.5,-375 172.5,-375 172.5,-381 166.5,-387 160.5,-387"/>
<text text-anchor="middle" x="142.5" y="-366.5" font-family="Helvetica,sans-Serif" font-size="10.00">model/</text>
</g>
<!-- src&#45;&gt;model -->
<g id="edge6" class="edge">
<title>src&#45;&gt;model</title>
<path fill="none" stroke="#888888" stroke-width="0.9" d="M54.04,-420.63C70.09,-411.16 90.83,-398.91 108.08,-388.73"/>
<polygon fill="#888888" stroke="#888888" stroke-width="0.9" points="108.97,-390.23 112.39,-386.19 107.19,-387.22 108.97,-390.23"/>
</g>
<!-- qb -->
<g id="node8" class="node">
<title>qb</title>
<path fill="#e7f0ff" stroke="black" d="M178,-225C178,-225 107,-225 107,-225 101,-225 95,-219 95,-213 95,-213 95,-201 95,-201 95,-195 101,-189 107,-189 107,-189 178,-189 178,-189 184,-189 190,-195 190,-201 190,-201 190,-213 190,-213 190,-219 184,-225 178,-225"/>
<text text-anchor="middle" x="142.5" y="-204.5" font-family="Helvetica,sans-Serif" font-size="10.00">query&#45;builder/</text>
</g>
<!-- src&#45;&gt;qb -->
<g id="edge7" class="edge">
<title>src&#45;&gt;qb</title>
<path fill="none" stroke="#888888" stroke-width="0.9" d="M37.1,-417.65C57.65,-376.17 107.64,-275.31 130.17,-229.86"/>
<polygon fill="#888888" stroke="#888888" stroke-width="0.9" points="131.87,-230.38 132.52,-225.12 128.73,-228.83 131.87,-230.38"/>
</g>
<!-- sb -->
<g id="node9" class="node">
<title>sb</title>
<path fill="#f3e8fd" stroke="black" d="M183,-117C183,-117 102,-117 102,-117 96,-117 90,-111 90,-105 90,-105 90,-93 90,-93 90,-87 96,-81 102,-81 102,-81 183,-81 183,-81 189,-81 195,-87 195,-93 195,-93 195,-105 195,-105 195,-111 189,-117 183,-117"/>
<text text-anchor="middle" x="142.5" y="-96.5" font-family="Helvetica,sans-Serif" font-size="10.00">schema&#45;builder/</text>
</g>
<!-- src&#45;&gt;sb -->
<g id="edge8" class="edge">
<title>src&#45;&gt;sb</title>
<path fill="none" stroke="#888888" stroke-width="0.9" d="M30.29,-417.98C36.15,-375.25 53.86,-265.01 90,-180 99,-158.83 113.26,-136.94 124.5,-121.27"/>
<polygon fill="#888888" stroke="#888888" stroke-width="0.9" points="126.07,-122.09 127.58,-117.01 123.23,-120.04 126.07,-122.09"/>
</g>
<!-- index -->
<g id="node10" class="node">
<title>index</title>
<polygon fill="#eeeeee" stroke="black" points="189,-63 90,-63 90,-27 195,-27 195,-57 189,-63"/>
<polyline fill="none" stroke="black" points="189,-63 189,-57 "/>
<polyline fill="none" stroke="black" points="195,-57 189,-57 "/>
<text text-anchor="middle" x="142.5" y="-42.5" font-family="Helvetica,sans-Serif" font-size="10.00">index.ts (barrel)</text>
</g>
<!-- src&#45;&gt;index -->
<g id="edge9" class="edge">
<title>src&#45;&gt;index</title>
<path fill="none" stroke="#888888" stroke-width="0.9" d="M29,-417.6C32.92,-351.71 49.02,-128.4 90,-72 91.34,-70.16 92.83,-68.44 94.46,-66.82"/>
<polygon fill="#888888" stroke="#888888" stroke-width="0.9" points="95.89,-67.89 98.45,-63.25 93.56,-65.28 95.89,-67.89"/>
</g>
<!-- cli_cmd -->
<g id="node11" class="node">
<title>cli_cmd</title>
<path fill="#fff8e6" stroke="black" d="M340.5,-1008C340.5,-1008 280.5,-1008 280.5,-1008 274.5,-1008 268.5,-1002 268.5,-996 268.5,-996 268.5,-984 268.5,-984 268.5,-978 274.5,-972 280.5,-972 280.5,-972 340.5,-972 340.5,-972 346.5,-972 352.5,-978 352.5,-984 352.5,-984 352.5,-996 352.5,-996 352.5,-1002 346.5,-1008 340.5,-1008"/>
<text text-anchor="middle" x="310.5" y="-987.5" font-family="Helvetica,sans-Serif" font-size="10.00">commands/</text>
</g>
<!-- cli&#45;&gt;cli_cmd -->
<g id="edge10" class="edge">
<title>cli&#45;&gt;cli_cmd</title>
<path fill="none" stroke="#888888" stroke-width="0.9" d="M169.8,-944.56C194.97,-952.74 233.46,-965.26 263.66,-975.09"/>
<polygon fill="#888888" stroke="#888888" stroke-width="0.9" points="263.14,-976.76 268.44,-976.64 264.22,-973.43 263.14,-976.76"/>
</g>
<!-- cli_main -->
<g id="node12" class="node">
<title>cli_main</title>
<polygon fill="#fafafa" stroke="black" points="336,-954 279,-954 279,-918 342,-918 342,-948 336,-954"/>
<polyline fill="none" stroke="black" points="336,-954 336,-948 "/>
<polyline fill="none" stroke="black" points="342,-948 336,-948 "/>
<text text-anchor="middle" x="310.5" y="-933.5" font-family="Helvetica,sans-Serif" font-size="10.00">main.ts</text>
</g>
<!-- cli&#45;&gt;cli_main -->
<g id="edge11" class="edge">
<title>cli&#45;&gt;cli_main</title>
<path fill="none" stroke="#888888" stroke-width="0.9" d="M169.8,-936C197.8,-936 242.29,-936 273.53,-936"/>
<polygon fill="#888888" stroke="#888888" stroke-width="0.9" points="273.81,-937.75 278.81,-936 273.81,-934.25 273.81,-937.75"/>
</g>
<!-- dec_rel -->
<g id="node13" class="node">
<title>dec_rel</title>
<path fill="#fcf0f4" stroke="black" d="M334.5,-900C334.5,-900 286.5,-900 286.5,-900 280.5,-900 274.5,-894 274.5,-888 274.5,-888 274.5,-876 274.5,-876 274.5,-870 280.5,-864 286.5,-864 286.5,-864 334.5,-864 334.5,-864 340.5,-864 346.5,-870 346.5,-876 346.5,-876 346.5,-888 346.5,-888 346.5,-894 340.5,-900 334.5,-900"/>
<text text-anchor="middle" x="310.5" y="-879.5" font-family="Helvetica,sans-Serif" font-size="10.00">relations/</text>
</g>
<!-- decorators&#45;&gt;dec_rel -->
<g id="edge12" class="edge">
<title>decorators&#45;&gt;dec_rel</title>
<path fill="none" stroke="#888888" stroke-width="0.9" d="M183.26,-840.93C209.36,-849.42 243.36,-860.49 269.51,-868.99"/>
<polygon fill="#888888" stroke="#888888" stroke-width="0.9" points="269,-870.66 274.29,-870.55 270.08,-867.34 269,-870.66"/>
</g>
<!-- dec_int -->
<g id="node14" class="node">
<title>dec_int</title>
<path fill="#fcf0f4" stroke="black" d="M332,-846C332,-846 289,-846 289,-846 283,-846 277,-840 277,-834 277,-834 277,-822 277,-822 277,-816 283,-810 289,-810 289,-810 332,-810 332,-810 338,-810 344,-816 344,-822 344,-822 344,-834 344,-834 344,-840 338,-846 332,-846"/>
<text text-anchor="middle" x="310.5" y="-825.5" font-family="Helvetica,sans-Serif" font-size="10.00">internal/</text>
</g>
<!-- decorators&#45;&gt;dec_int -->
<g id="edge13" class="edge">
<title>decorators&#45;&gt;dec_int</title>
<path fill="none" stroke="#888888" stroke-width="0.9" d="M183.26,-828C210.06,-828 245.2,-828 271.6,-828"/>
<polygon fill="#888888" stroke="#888888" stroke-width="0.9" points="271.75,-829.75 276.75,-828 271.75,-826.25 271.75,-829.75"/>
</g>
<!-- drv_common -->
<g id="node15" class="node">
<title>drv_common</title>
<path fill="#eef3ff" stroke="black" d="M378,-792C378,-792 243,-792 243,-792 237,-792 231,-786 231,-780 231,-780 231,-768 231,-768 231,-762 237,-756 243,-756 243,-756 378,-756 378,-756 384,-756 390,-762 390,-768 390,-768 390,-780 390,-780 390,-786 384,-792 378,-792"/>
<text text-anchor="middle" x="310.5" y="-777" font-family="Helvetica,sans-Serif" font-size="10.00">common/</text>
<text text-anchor="middle" x="310.5" y="-766" font-family="Helvetica,sans-Serif" font-size="10.00">(Driver, Dialect, compilers)</text>
</g>
<!-- drivers&#45;&gt;drv_common -->
<g id="edge14" class="edge">
<title>drivers&#45;&gt;drv_common</title>
<path fill="none" stroke="#888888" stroke-width="0.9" d="M158.89,-684.12C175.16,-702.27 202.4,-729.89 231,-747 235.17,-749.5 239.61,-751.8 244.17,-753.93"/>
<polygon fill="#888888" stroke="#888888" stroke-width="0.9" points="243.49,-755.54 248.77,-755.99 244.92,-752.35 243.49,-755.54"/>
</g>
<!-- drv_pg -->
<g id="node16" class="node">
<title>drv_pg</title>
<path fill="#eef3ff" stroke="black" d="M371,-738C371,-738 250,-738 250,-738 244,-738 238,-732 238,-726 238,-726 238,-714 238,-714 238,-708 244,-702 250,-702 250,-702 371,-702 371,-702 377,-702 383,-708 383,-714 383,-714 383,-726 383,-726 383,-732 377,-738 371,-738"/>
<text text-anchor="middle" x="310.5" y="-723" font-family="Helvetica,sans-Serif" font-size="10.00">postgres/</text>
<text text-anchor="middle" x="310.5" y="-712" font-family="Helvetica,sans-Serif" font-size="10.00">(PostgresDriver, dialect)</text>
</g>
<!-- drivers&#45;&gt;drv_pg -->
<g id="edge15" class="edge">
<title>drivers&#45;&gt;drv_pg</title>
<path fill="none" stroke="#888888" stroke-width="0.9" d="M174.33,-676.03C195.25,-682.84 223.61,-692.06 248.95,-700.3"/>
<polygon fill="#888888" stroke="#888888" stroke-width="0.9" points="248.68,-702.05 253.97,-701.94 249.76,-698.73 248.68,-702.05"/>
</g>
<!-- drv_types -->
<g id="node17" class="node">
<title>drv_types</title>
<path fill="#eef3ff" stroke="black" d="M327,-684C327,-684 294,-684 294,-684 288,-684 282,-678 282,-672 282,-672 282,-660 282,-660 282,-654 288,-648 294,-648 294,-648 327,-648 327,-648 333,-648 339,-654 339,-660 339,-660 339,-672 339,-672 339,-678 333,-684 327,-684"/>
<text text-anchor="middle" x="310.5" y="-663.5" font-family="Helvetica,sans-Serif" font-size="10.00">types/</text>
</g>
<!-- drivers&#45;&gt;drv_types -->
<g id="edge16" class="edge">
<title>drivers&#45;&gt;drv_types</title>
<path fill="none" stroke="#888888" stroke-width="0.9" d="M174.33,-666C203.49,-666 247.1,-666 276.85,-666"/>
<polygon fill="#888888" stroke="#888888" stroke-width="0.9" points="276.86,-667.75 281.86,-666 276.86,-664.25 276.86,-667.75"/>
</g>
<!-- drv_errors -->
<g id="node18" class="node">
<title>drv_errors</title>
<path fill="#eef3ff" stroke="black" d="M327.5,-630C327.5,-630 293.5,-630 293.5,-630 287.5,-630 281.5,-624 281.5,-618 281.5,-618 281.5,-606 281.5,-606 281.5,-600 287.5,-594 293.5,-594 293.5,-594 327.5,-594 327.5,-594 333.5,-594 339.5,-600 339.5,-606 339.5,-606 339.5,-618 339.5,-618 339.5,-624 333.5,-630 327.5,-630"/>
<text text-anchor="middle" x="310.5" y="-609.5" font-family="Helvetica,sans-Serif" font-size="10.00">errors/</text>
</g>
<!-- drivers&#45;&gt;drv_errors -->
<g id="edge17" class="edge">
<title>drivers&#45;&gt;drv_errors</title>
<path fill="none" stroke="#888888" stroke-width="0.9" d="M174.33,-655.97C203.32,-646.54 246.57,-632.47 276.3,-622.8"/>
<polygon fill="#888888" stroke="#888888" stroke-width="0.9" points="277.11,-624.38 281.32,-621.17 276.02,-621.05 277.11,-624.38"/>
</g>
<!-- meta_storage -->
<g id="node19" class="node">
<title>meta_storage</title>
<path fill="#f7eefe" stroke="black" d="M331.5,-576C331.5,-576 289.5,-576 289.5,-576 283.5,-576 277.5,-570 277.5,-564 277.5,-564 277.5,-552 277.5,-552 277.5,-546 283.5,-540 289.5,-540 289.5,-540 331.5,-540 331.5,-540 337.5,-540 343.5,-546 343.5,-552 343.5,-552 343.5,-564 343.5,-564 343.5,-570 337.5,-576 331.5,-576"/>
<text text-anchor="middle" x="310.5" y="-555.5" font-family="Helvetica,sans-Serif" font-size="10.00">storage/</text>
</g>
<!-- metadata&#45;&gt;meta_storage -->
<g id="edge18" class="edge">
<title>metadata&#45;&gt;meta_storage</title>
<path fill="none" stroke="#888888" stroke-width="0.9" d="M181.28,-512.05C196.65,-518.08 214.62,-525 231,-531 244.5,-535.94 259.4,-541.13 272.55,-545.63"/>
<polygon fill="#888888" stroke="#888888" stroke-width="0.9" points="272.02,-547.29 277.32,-547.25 273.15,-543.98 272.02,-547.29"/>
</g>
<!-- meta_types -->
<g id="node20" class="node">
<title>meta_types</title>
<path fill="#f7eefe" stroke="black" d="M327,-522C327,-522 294,-522 294,-522 288,-522 282,-516 282,-510 282,-510 282,-498 282,-498 282,-492 288,-486 294,-486 294,-486 327,-486 327,-486 333,-486 339,-492 339,-498 339,-498 339,-510 339,-510 339,-516 333,-522 327,-522"/>
<text text-anchor="middle" x="310.5" y="-501.5" font-family="Helvetica,sans-Serif" font-size="10.00">types/</text>
</g>
<!-- metadata&#45;&gt;meta_types -->
<g id="edge19" class="edge">
<title>metadata&#45;&gt;meta_types</title>
<path fill="none" stroke="#888888" stroke-width="0.9" d="M181.17,-498.59C209.87,-499.8 248.99,-501.45 276.47,-502.61"/>
<polygon fill="#888888" stroke="#888888" stroke-width="0.9" points="276.74,-504.37 281.81,-502.83 276.89,-500.87 276.74,-504.37"/>
</g>
<!-- meta_errors -->
<g id="node21" class="node">
<title>meta_errors</title>
<path fill="#f7eefe" stroke="black" d="M327.5,-468C327.5,-468 293.5,-468 293.5,-468 287.5,-468 281.5,-462 281.5,-456 281.5,-456 281.5,-444 281.5,-444 281.5,-438 287.5,-432 293.5,-432 293.5,-432 327.5,-432 327.5,-432 333.5,-432 339.5,-438 339.5,-444 339.5,-444 339.5,-456 339.5,-456 339.5,-462 333.5,-468 327.5,-468"/>
<text text-anchor="middle" x="310.5" y="-447.5" font-family="Helvetica,sans-Serif" font-size="10.00">errors/</text>
</g>
<!-- metadata&#45;&gt;meta_errors -->
<g id="edge20" class="edge">
<title>metadata&#45;&gt;meta_errors</title>
<path fill="none" stroke="#888888" stroke-width="0.9" d="M181.17,-486.33C209.8,-478.23 248.83,-467.18 276.3,-459.4"/>
<polygon fill="#888888" stroke="#888888" stroke-width="0.9" points="276.96,-461.03 281.29,-457.99 276,-457.67 276.96,-461.03"/>
</g>
<!-- mod_types -->
<g id="node22" class="node">
<title>mod_types</title>
<path fill="#fcf0f4" stroke="black" d="M327,-414C327,-414 294,-414 294,-414 288,-414 282,-408 282,-402 282,-402 282,-390 282,-390 282,-384 288,-378 294,-378 294,-378 327,-378 327,-378 333,-378 339,-384 339,-390 339,-390 339,-402 339,-402 339,-408 333,-414 327,-414"/>
<text text-anchor="middle" x="310.5" y="-393.5" font-family="Helvetica,sans-Serif" font-size="10.00">types/</text>
</g>
<!-- model&#45;&gt;mod_types -->
<g id="edge21" class="edge">
<title>model&#45;&gt;mod_types</title>
<path fill="none" stroke="#888888" stroke-width="0.9" d="M172.8,-373.76C201.92,-378.5 246.5,-385.75 276.77,-390.68"/>
<polygon fill="#888888" stroke="#888888" stroke-width="0.9" points="276.66,-392.43 281.88,-391.51 277.22,-388.98 276.66,-392.43"/>
</g>
<!-- mod_internal -->
<g id="node23" class="node">
<title>mod_internal</title>
<path fill="#fcf0f4" stroke="black" d="M376.5,-360C376.5,-360 244.5,-360 244.5,-360 238.5,-360 232.5,-354 232.5,-348 232.5,-348 232.5,-336 232.5,-336 232.5,-330 238.5,-324 244.5,-324 244.5,-324 376.5,-324 376.5,-324 382.5,-324 388.5,-330 388.5,-336 388.5,-336 388.5,-348 388.5,-348 388.5,-354 382.5,-360 376.5,-360"/>
<text text-anchor="middle" x="310.5" y="-345" font-family="Helvetica,sans-Serif" font-size="10.00">internal/</text>
<text text-anchor="middle" x="310.5" y="-334" font-family="Helvetica,sans-Serif" font-size="10.00">(cascade, relationLoaders)</text>
</g>
<!-- model&#45;&gt;mod_internal -->
<g id="edge22" class="edge">
<title>model&#45;&gt;mod_internal</title>
<path fill="none" stroke="#888888" stroke-width="0.9" d="M172.8,-364.24C188.15,-361.74 207.81,-358.54 227.41,-355.35"/>
<polygon fill="#888888" stroke="#888888" stroke-width="0.9" points="227.73,-357.07 232.38,-354.54 227.17,-353.62 227.73,-357.07"/>
</g>
<!-- mod_errors -->
<g id="node24" class="node">
<title>mod_errors</title>
<path fill="#fcf0f4" stroke="black" d="M327.5,-306C327.5,-306 293.5,-306 293.5,-306 287.5,-306 281.5,-300 281.5,-294 281.5,-294 281.5,-282 281.5,-282 281.5,-276 287.5,-270 293.5,-270 293.5,-270 327.5,-270 327.5,-270 333.5,-270 339.5,-276 339.5,-282 339.5,-282 339.5,-294 339.5,-294 339.5,-300 333.5,-306 327.5,-306"/>
<text text-anchor="middle" x="310.5" y="-285.5" font-family="Helvetica,sans-Serif" font-size="10.00">errors/</text>
</g>
<!-- model&#45;&gt;mod_errors -->
<g id="edge23" class="edge">
<title>model&#45;&gt;mod_errors</title>
<path fill="none" stroke="#888888" stroke-width="0.9" d="M169.45,-350.87C186.42,-339.55 209.38,-325.23 231,-315 245.39,-308.19 261.97,-302.23 276.18,-297.66"/>
<polygon fill="#888888" stroke="#888888" stroke-width="0.9" points="277.06,-299.21 281.29,-296.03 276,-295.88 277.06,-299.21"/>
</g>
<!-- qb_builders -->
<g id="node25" class="node">
<title>qb_builders</title>
<path fill="#eef3ff" stroke="black" d="M333,-252C333,-252 288,-252 288,-252 282,-252 276,-246 276,-240 276,-240 276,-228 276,-228 276,-222 282,-216 288,-216 288,-216 333,-216 333,-216 339,-216 345,-222 345,-228 345,-228 345,-240 345,-240 345,-246 339,-252 333,-252"/>
<text text-anchor="middle" x="310.5" y="-231.5" font-family="Helvetica,sans-Serif" font-size="10.00">builders/</text>
</g>
<!-- qb&#45;&gt;qb_builders -->
<g id="edge24" class="edge">
<title>qb&#45;&gt;qb_builders</title>
<path fill="none" stroke="#888888" stroke-width="0.9" d="M190.18,-214.59C215.61,-218.73 246.7,-223.79 270.77,-227.7"/>
<polygon fill="#888888" stroke="#888888" stroke-width="0.9" points="270.58,-229.44 275.79,-228.52 271.14,-225.99 270.58,-229.44"/>
</g>
<!-- qb_types -->
<g id="node26" class="node">
<title>qb_types</title>
<path fill="#eef3ff" stroke="black" d="M349,-198C349,-198 272,-198 272,-198 266,-198 260,-192 260,-186 260,-186 260,-174 260,-174 260,-168 266,-162 272,-162 272,-162 349,-162 349,-162 355,-162 361,-168 361,-174 361,-174 361,-186 361,-186 361,-192 355,-198 349,-198"/>
<text text-anchor="middle" x="310.5" y="-183" font-family="Helvetica,sans-Serif" font-size="10.00">types/</text>
<text text-anchor="middle" x="310.5" y="-172" font-family="Helvetica,sans-Serif" font-size="10.00">(Query, clause)</text>
</g>
<!-- qb&#45;&gt;qb_types -->
<g id="edge25" class="edge">
<title>qb&#45;&gt;qb_types</title>
<path fill="none" stroke="#888888" stroke-width="0.9" d="M190.18,-199.41C210.33,-196.13 234.05,-192.27 255,-188.86"/>
<polygon fill="#888888" stroke="#888888" stroke-width="0.9" points="255.33,-190.58 259.98,-188.05 254.77,-187.13 255.33,-190.58"/>
</g>
<!-- qb_errors -->
<g id="node27" class="node">
<title>qb_errors</title>
<path fill="#eef3ff" stroke="black" d="M327.5,-144C327.5,-144 293.5,-144 293.5,-144 287.5,-144 281.5,-138 281.5,-132 281.5,-132 281.5,-120 281.5,-120 281.5,-114 287.5,-108 293.5,-108 293.5,-108 327.5,-108 327.5,-108 333.5,-108 339.5,-114 339.5,-120 339.5,-120 339.5,-132 339.5,-132 339.5,-138 333.5,-144 327.5,-144"/>
<text text-anchor="middle" x="310.5" y="-123.5" font-family="Helvetica,sans-Serif" font-size="10.00">errors/</text>
</g>
<!-- qb&#45;&gt;qb_errors -->
<g id="edge26" class="edge">
<title>qb&#45;&gt;qb_errors</title>
<path fill="none" stroke="#888888" stroke-width="0.9" d="M169.45,-188.87C186.42,-177.55 209.38,-163.23 231,-153 245.39,-146.19 261.97,-140.23 276.18,-135.66"/>
<polygon fill="#888888" stroke="#888888" stroke-width="0.9" points="277.06,-137.21 281.29,-134.03 276,-133.88 277.06,-137.21"/>
</g>
<!-- sb_builders -->
<g id="node28" class="node">
<title>sb_builders</title>
<path fill="#f7eefe" stroke="black" d="M333,-90C333,-90 288,-90 288,-90 282,-90 276,-84 276,-78 276,-78 276,-66 276,-66 276,-60 282,-54 288,-54 288,-54 333,-54 333,-54 339,-54 345,-60 345,-66 345,-66 345,-78 345,-78 345,-84 339,-90 333,-90"/>
<text text-anchor="middle" x="310.5" y="-69.5" font-family="Helvetica,sans-Serif" font-size="10.00">builders/</text>
</g>
<!-- sb&#45;&gt;sb_builders -->
<g id="edge27" class="edge">
<title>sb&#45;&gt;sb_builders</title>
<path fill="none" stroke="#888888" stroke-width="0.9" d="M195.11,-90.61C219.62,-86.62 248.42,-81.94 270.98,-78.27"/>
<polygon fill="#888888" stroke="#888888" stroke-width="0.9" points="271.34,-79.98 275.99,-77.45 270.77,-76.53 271.34,-79.98"/>
</g>
<!-- sb_types -->
<g id="node29" class="node">
<title>sb_types</title>
<path fill="#f7eefe" stroke="black" d="M338.5,-36C338.5,-36 282.5,-36 282.5,-36 276.5,-36 270.5,-30 270.5,-24 270.5,-24 270.5,-12 270.5,-12 270.5,-6 276.5,0 282.5,0 282.5,0 338.5,0 338.5,0 344.5,0 350.5,-6 350.5,-12 350.5,-12 350.5,-24 350.5,-24 350.5,-30 344.5,-36 338.5,-36"/>
<text text-anchor="middle" x="310.5" y="-21" font-family="Helvetica,sans-Serif" font-size="10.00">types/</text>
<text text-anchor="middle" x="310.5" y="-10" font-family="Helvetica,sans-Serif" font-size="10.00">(DdlQuery)</text>
</g>
<!-- sb&#45;&gt;sb_types -->
<g id="edge28" class="edge">
<title>sb&#45;&gt;sb_types</title>
<path fill="none" stroke="#888888" stroke-width="0.9" d="M179.66,-80.99C184.88,-78.11 190.13,-75.07 195,-72 211.91,-61.32 213.33,-54.37 231,-45 241.7,-39.33 253.83,-34.47 265.29,-30.51"/>
<polygon fill="#888888" stroke="#888888" stroke-width="0.9" points="265.99,-32.12 270.16,-28.86 264.87,-28.81 265.99,-32.12"/>
</g>
</g>
</svg>
