<?xml version="1.0" encoding="UTF-8" standalone="no"?>
<!DOCTYPE svg PUBLIC "-//W3C//DTD SVG 1.1//EN"
 "http://www.w3.org/Graphics/SVG/1.1/DTD/svg11.dtd">
<!-- Generated by graphviz version 2.43.0 (0)
 -->
<!-- Title: migration_lifecycle Pages: 1 -->
<svg width="379pt" height="1018pt"
 viewBox="0.00 0.00 378.50 1018.00" xmlns="http://www.w3.org/2000/svg" xmlns:xlink="http://www.w3.org/1999/xlink">
<g id="graph0" class="graph" transform="scale(1 1) rotate(0) translate(4 1014)">
<title>migration_lifecycle</title>
<polygon fill="white" stroke="transparent" points="-4,4 -4,-1014 374.5,-1014 374.5,4 -4,4"/>
<!-- cmd -->
<g id="node1" class="node">
<title>cmd</title>
<polygon fill="#e0e7ff" stroke="black" points="289,-1010 182,-1010 182,-974 295,-974 295,-1004 289,-1010"/>
<polyline fill="none" stroke="black" points="289,-1010 289,-1004 "/>
<polyline fill="none" stroke="black" points="295,-1004 289,-1004 "/>
<text text-anchor="middle" x="238.5" y="-989.5" font-family="Helvetica,sans-Serif" font-size="10.00">$ yaoi migrate:up</text>
</g>
<!-- boot -->
<g id="node2" class="node">
<title>boot</title>
<path fill="#fff5d6" stroke="black" d="M329,-937C329,-937 148,-937 148,-937 142,-937 136,-931 136,-925 136,-925 136,-913 136,-913 136,-907 142,-901 148,-901 148,-901 329,-901 329,-901 335,-901 341,-907 341,-913 341,-913 341,-925 341,-925 341,-931 335,-937 329,-937"/>
<text text-anchor="middle" x="238.5" y="-922" font-family="Helvetica,sans-Serif" font-size="10.00">bootstrap()</text>
<text text-anchor="middle" x="238.5" y="-911" font-family="Helvetica,sans-Serif" font-size="10.00">advisory lock + ensureTrackingTable</text>
</g>
<!-- cmd&#45;&gt;boot -->
<g id="edge1" class="edge">
<title>cmd&#45;&gt;boot</title>
<path fill="none" stroke="#666666" d="M238.5,-973.81C238.5,-964.92 238.5,-953.91 238.5,-944.17"/>
<polygon fill="#666666" stroke="#666666" points="240.95,-944.03 238.5,-937.03 236.05,-944.03 240.95,-944.03"/>
</g>
<!-- discover -->
<g id="node3" class="node">
<title>discover</title>
<path fill="#e7f0ff" stroke="black" d="M296.5,-864C296.5,-864 180.5,-864 180.5,-864 174.5,-864 168.5,-858 168.5,-852 168.5,-852 168.5,-840 168.5,-840 168.5,-834 174.5,-828 180.5,-828 180.5,-828 296.5,-828 296.5,-828 302.5,-828 308.5,-834 308.5,-840 308.5,-840 308.5,-852 308.5,-852 308.5,-858 302.5,-864 296.5,-864"/>
<text text-anchor="middle" x="238.5" y="-849" font-family="Helvetica,sans-Serif" font-size="10.00">discoverMigrations(dir)</text>
<text text-anchor="middle" x="238.5" y="-838" font-family="Helvetica,sans-Serif" font-size="10.00">[fs.readdir + sort]</text>
</g>
<!-- boot&#45;&gt;discover -->
<g id="edge2" class="edge">
<title>boot&#45;&gt;discover</title>
<path fill="none" stroke="#666666" d="M238.5,-900.81C238.5,-891.92 238.5,-880.91 238.5,-871.17"/>
<polygon fill="#666666" stroke="#666666" points="240.95,-871.03 238.5,-864.03 236.05,-871.03 240.95,-871.03"/>
</g>
<!-- read -->
<g id="node4" class="node">
<title>read</title>
<path fill="#e7f0ff" stroke="black" d="M318.5,-791C318.5,-791 158.5,-791 158.5,-791 152.5,-791 146.5,-785 146.5,-779 146.5,-779 146.5,-767 146.5,-767 146.5,-761 152.5,-755 158.5,-755 158.5,-755 318.5,-755 318.5,-755 324.5,-755 330.5,-761 330.5,-767 330.5,-767 330.5,-779 330.5,-779 330.5,-785 324.5,-791 318.5,-791"/>
<text text-anchor="middle" x="238.5" y="-776" font-family="Helvetica,sans-Serif" font-size="10.00">readApplied(driver)</text>
<text text-anchor="middle" x="238.5" y="-765" font-family="Helvetica,sans-Serif" font-size="10.00">[SELECT FROM yaoi_migrations]</text>
</g>
<!-- discover&#45;&gt;read -->
<g id="edge3" class="edge">
<title>discover&#45;&gt;read</title>
<path fill="none" stroke="#666666" d="M238.5,-827.81C238.5,-818.92 238.5,-807.91 238.5,-798.17"/>
<polygon fill="#666666" stroke="#666666" points="240.95,-798.03 238.5,-791.03 236.05,-798.03 240.95,-798.03"/>
</g>
<!-- verify -->
<g id="node5" class="node">
<title>verify</title>
<path fill="#fde7ef" stroke="black" d="M319,-718C319,-718 158,-718 158,-718 152,-718 146,-712 146,-706 146,-706 146,-683 146,-683 146,-677 152,-671 158,-671 158,-671 319,-671 319,-671 325,-671 331,-677 331,-683 331,-683 331,-706 331,-706 331,-712 325,-718 319,-718"/>
<text text-anchor="middle" x="238.5" y="-703" font-family="Helvetica,sans-Serif" font-size="10.00">verifyAppliedChecksums()</text>
<text text-anchor="middle" x="238.5" y="-692" font-family="Helvetica,sans-Serif" font-size="10.00">throws ChecksumMismatchError</text>
<text text-anchor="middle" x="238.5" y="-681" font-family="Helvetica,sans-Serif" font-size="10.00">if drift detected</text>
</g>
<!-- read&#45;&gt;verify -->
<g id="edge4" class="edge">
<title>read&#45;&gt;verify</title>
<path fill="none" stroke="#666666" d="M238.5,-754.64C238.5,-745.91 238.5,-735.1 238.5,-725.11"/>
<polygon fill="#666666" stroke="#666666" points="240.95,-725.02 238.5,-718.02 236.05,-725.02 240.95,-725.02"/>
</g>
<!-- loop_head -->
<g id="node6" class="node">
<title>loop_head</title>
<path fill="#f3e8fd" stroke="black" d="M330.68,-619.94C330.68,-619.94 301.59,-630.06 301.59,-630.06 295.92,-632.03 284.26,-634 278.26,-634 278.26,-634 198.74,-634 198.74,-634 192.74,-634 181.08,-632.03 175.41,-630.06 175.41,-630.06 146.32,-619.94 146.32,-619.94 140.65,-617.97 140.65,-614.03 146.32,-612.06 146.32,-612.06 175.41,-601.94 175.41,-601.94 181.08,-599.97 192.74,-598 198.74,-598 198.74,-598 278.26,-598 278.26,-598 284.26,-598 295.92,-599.97 301.59,-601.94 301.59,-601.94 330.68,-612.06 330.68,-612.06 336.35,-614.03 336.35,-617.97 330.68,-619.94"/>
<text text-anchor="middle" x="238.5" y="-613.5" font-family="Helvetica,sans-Serif" font-size="10.00">for each pending file:</text>
</g>
<!-- verify&#45;&gt;loop_head -->
<g id="edge5" class="edge">
<title>verify&#45;&gt;loop_head</title>
<path fill="none" stroke="#666666" d="M238.5,-670.96C238.5,-661.64 238.5,-650.81 238.5,-641.32"/>
<polygon fill="#666666" stroke="#666666" points="240.95,-641.04 238.5,-634.04 236.05,-641.04 240.95,-641.04"/>
</g>
<!-- txbegin -->
<g id="node7" class="node">
<title>txbegin</title>
<path fill="#fff5d6" stroke="black" d="M179.5,-547C179.5,-547 23.5,-547 23.5,-547 17.5,-547 11.5,-541 11.5,-535 11.5,-535 11.5,-523 11.5,-523 11.5,-517 17.5,-511 23.5,-511 23.5,-511 179.5,-511 179.5,-511 185.5,-511 191.5,-517 191.5,-523 191.5,-523 191.5,-535 191.5,-535 191.5,-541 185.5,-547 179.5,-547"/>
<text text-anchor="middle" x="101.5" y="-532" font-family="Helvetica,sans-Serif" font-size="10.00">driver.withTransaction(tx =&gt; {)</text>
<text text-anchor="middle" x="101.5" y="-521" font-family="Helvetica,sans-Serif" font-size="10.00">BEGIN</text>
</g>
<!-- loop_head&#45;&gt;txbegin -->
<g id="edge6" class="edge">
<title>loop_head&#45;&gt;txbegin</title>
<path fill="none" stroke="#666666" d="M210.78,-597.8C188.96,-584.26 158.46,-565.34 135.23,-550.92"/>
<polygon fill="#666666" stroke="#666666" points="136.42,-548.78 129.18,-547.18 133.84,-552.95 136.42,-548.78"/>
</g>
<!-- done -->
<g id="node15" class="node">
<title>done</title>
<polygon fill="#eeeeee" stroke="black" points="273,-547 210,-547 210,-511 279,-511 279,-541 273,-547"/>
<polyline fill="none" stroke="black" points="273,-547 273,-541 "/>
<polyline fill="none" stroke="black" points="279,-541 273,-541 "/>
<text text-anchor="middle" x="244.5" y="-526.5" font-family="Helvetica,sans-Serif" font-size="10.00">end loop</text>
</g>
<!-- loop_head&#45;&gt;done -->
<g id="edge15" class="edge">
<title>loop_head&#45;&gt;done</title>
<path fill="none" stroke="#888888" stroke-dasharray="5,2" d="M238.33,-597.85C238.36,-588.19 238.62,-575.9 239.5,-565 239.78,-561.51 240.19,-557.84 240.65,-554.25"/>
<polygon fill="#888888" stroke="#888888" points="243.11,-554.31 241.64,-547.04 238.26,-553.64 243.11,-554.31"/>
<text text-anchor="middle" x="269" y="-568.8" font-family="Times,serif" font-size="14.00">no more</text>
</g>
<!-- lock -->
<g id="node8" class="node">
<title>lock</title>
<path fill="#fde7ef" stroke="black" d="M191,-474C191,-474 12,-474 12,-474 6,-474 0,-468 0,-462 0,-462 0,-450 0,-450 0,-444 6,-438 12,-438 12,-438 191,-438 191,-438 197,-438 203,-444 203,-450 203,-450 203,-462 203,-462 203,-468 197,-474 191,-474"/>
<text text-anchor="middle" x="101.5" y="-459" font-family="Helvetica,sans-Serif" font-size="10.00">acquireRunnerLock(tx)</text>
<text text-anchor="middle" x="101.5" y="-448" font-family="Helvetica,sans-Serif" font-size="10.00">pg_advisory_xact_lock(0x59414f49)</text>
</g>
<!-- txbegin&#45;&gt;lock -->
<g id="edge7" class="edge">
<title>txbegin&#45;&gt;lock</title>
<path fill="none" stroke="#666666" d="M101.5,-510.81C101.5,-501.92 101.5,-490.91 101.5,-481.17"/>
<polygon fill="#666666" stroke="#666666" points="103.95,-481.03 101.5,-474.03 99.05,-481.03 103.95,-481.03"/>
</g>
<!-- recheck -->
<g id="node9" class="node">
<title>recheck</title>
<path fill="#f3e8fd" stroke="black" d="M169.5,-401C169.5,-401 37.5,-401 37.5,-401 31.5,-401 25.5,-395 25.5,-389 25.5,-389 25.5,-377 25.5,-377 25.5,-371 31.5,-365 37.5,-365 37.5,-365 169.5,-365 169.5,-365 175.5,-365 181.5,-371 181.5,-377 181.5,-377 181.5,-389 181.5,-389 181.5,-395 175.5,-401 169.5,-401"/>
<text text-anchor="middle" x="103.5" y="-386" font-family="Helvetica,sans-Serif" font-size="10.00">re&#45;check applied inside TX</text>
<text text-anchor="middle" x="103.5" y="-375" font-family="Helvetica,sans-Serif" font-size="10.00">(idempotent skip)</text>
</g>
<!-- lock&#45;&gt;recheck -->
<g id="edge8" class="edge">
<title>lock&#45;&gt;recheck</title>
<path fill="none" stroke="#666666" d="M101.98,-437.81C102.23,-428.92 102.54,-417.91 102.82,-408.17"/>
<polygon fill="#666666" stroke="#666666" points="105.27,-408.1 103.02,-401.03 100.37,-407.96 105.27,-408.1"/>
</g>
<!-- sum -->
<g id="node10" class="node">
<title>sum</title>
<path fill="#fff5d6" stroke="black" d="M180,-328C180,-328 41,-328 41,-328 35,-328 29,-322 29,-316 29,-316 29,-304 29,-304 29,-298 35,-292 41,-292 41,-292 180,-292 180,-292 186,-292 192,-298 192,-304 192,-304 192,-316 192,-316 192,-322 186,-328 180,-328"/>
<text text-anchor="middle" x="110.5" y="-313" font-family="Helvetica,sans-Serif" font-size="10.00">fileChecksum(absolutePath)</text>
<text text-anchor="middle" x="110.5" y="-302" font-family="Helvetica,sans-Serif" font-size="10.00">SHA&#45;256</text>
</g>
<!-- recheck&#45;&gt;sum -->
<g id="edge9" class="edge">
<title>recheck&#45;&gt;sum</title>
<path fill="none" stroke="#666666" d="M105.19,-364.81C106.07,-355.92 107.16,-344.91 108.12,-335.17"/>
<polygon fill="#666666" stroke="#666666" points="110.57,-335.24 108.82,-328.03 105.7,-334.75 110.57,-335.24"/>
</g>
<!-- loadmig -->
<g id="node11" class="node">
<title>loadmig</title>
<path fill="#e7f0ff" stroke="black" d="M200.5,-255C200.5,-255 74.5,-255 74.5,-255 68.5,-255 62.5,-249 62.5,-243 62.5,-243 62.5,-231 62.5,-231 62.5,-225 68.5,-219 74.5,-219 74.5,-219 200.5,-219 200.5,-219 206.5,-219 212.5,-225 212.5,-231 212.5,-231 212.5,-243 212.5,-243 212.5,-249 206.5,-255 200.5,-255"/>
<text text-anchor="middle" x="137.5" y="-234.5" font-family="Helvetica,sans-Serif" font-size="10.00">file.load() → { up, down }</text>
</g>
<!-- sum&#45;&gt;loadmig -->
<g id="edge10" class="edge">
<title>sum&#45;&gt;loadmig</title>
<path fill="none" stroke="#666666" d="M117.04,-291.81C120.49,-282.74 124.77,-271.48 128.53,-261.6"/>
<polygon fill="#666666" stroke="#666666" points="130.83,-262.44 131.02,-255.03 126.25,-260.7 130.83,-262.44"/>
</g>
<!-- runup -->
<g id="node12" class="node">
<title>runup</title>
<path fill="#e7f0ff" stroke="black" d="M269.5,-182C269.5,-182 83.5,-182 83.5,-182 77.5,-182 71.5,-176 71.5,-170 71.5,-170 71.5,-158 71.5,-158 71.5,-152 77.5,-146 83.5,-146 83.5,-146 269.5,-146 269.5,-146 275.5,-146 281.5,-152 281.5,-158 281.5,-158 281.5,-170 281.5,-170 281.5,-176 275.5,-182 269.5,-182"/>
<text text-anchor="middle" x="176.5" y="-161.5" font-family="Helvetica,sans-Serif" font-size="10.00">migration.up(new SchemaBuilder(tx))</text>
</g>
<!-- loadmig&#45;&gt;runup -->
<g id="edge11" class="edge">
<title>loadmig&#45;&gt;runup</title>
<path fill="none" stroke="#666666" d="M146.94,-218.81C151.97,-209.66 158.23,-198.26 163.69,-188.32"/>
<polygon fill="#666666" stroke="#666666" points="165.92,-189.34 167.15,-182.03 161.63,-186.98 165.92,-189.34"/>
</g>
<!-- record -->
<g id="node13" class="node">
<title>record</title>
<path fill="#fff5d6" stroke="black" d="M270,-109C270,-109 93,-109 93,-109 87,-109 81,-103 81,-97 81,-97 81,-85 81,-85 81,-79 87,-73 93,-73 93,-73 270,-73 270,-73 276,-73 282,-79 282,-85 282,-85 282,-97 282,-97 282,-103 276,-109 270,-109"/>
<text text-anchor="middle" x="181.5" y="-94" font-family="Helvetica,sans-Serif" font-size="10.00">recordApplied(tx, name, checksum)</text>
<text text-anchor="middle" x="181.5" y="-83" font-family="Helvetica,sans-Serif" font-size="10.00">INSERT INTO yaoi_migrations</text>
</g>
<!-- runup&#45;&gt;record -->
<g id="edge12" class="edge">
<title>runup&#45;&gt;record</title>
<path fill="none" stroke="#666666" d="M177.71,-145.81C178.34,-136.92 179.11,-125.91 179.8,-116.17"/>
<polygon fill="#666666" stroke="#666666" points="182.25,-116.18 180.3,-109.03 177.37,-115.84 182.25,-116.18"/>
</g>
<!-- commit -->
<g id="node14" class="node">
<title>commit</title>
<path fill="#fde7ef" stroke="black" d="M326.5,-36C326.5,-36 166.5,-36 166.5,-36 160.5,-36 154.5,-30 154.5,-24 154.5,-24 154.5,-12 154.5,-12 154.5,-6 160.5,0 166.5,0 166.5,0 326.5,0 326.5,0 332.5,0 338.5,-6 338.5,-12 338.5,-12 338.5,-24 338.5,-24 338.5,-30 332.5,-36 326.5,-36"/>
<text text-anchor="middle" x="246.5" y="-15.5" font-family="Helvetica,sans-Serif" font-size="10.00">COMMIT (or ROLLBACK on error)</text>
</g>
<!-- record&#45;&gt;commit -->
<g id="edge13" class="edge">
<title>record&#45;&gt;commit</title>
<path fill="none" stroke="#666666" d="M197.23,-72.81C205.86,-63.39 216.65,-51.61 225.93,-41.47"/>
<polygon fill="#666666" stroke="#666666" points="227.99,-42.85 230.91,-36.03 224.38,-39.54 227.99,-42.85"/>
</g>
<!-- commit&#45;&gt;loop_head -->
<g id="edge14" class="edge">
<title>commit&#45;&gt;loop_head</title>
<path fill="none" stroke="#888888" stroke-dasharray="5,2" d="M276.41,-36.09C293.87,-48.5 312.5,-67.11 312.5,-90 312.5,-530 312.5,-530 312.5,-530 312.5,-553.08 312.61,-561.74 298.5,-580 294.44,-585.26 289.35,-589.87 283.86,-593.88"/>
<polygon fill="#888888" stroke="#888888" points="282.2,-592.04 277.77,-597.99 284.95,-596.1 282.2,-592.04"/>
<text text-anchor="middle" x="341.5" y="-306.3" font-family="Times,serif" font-size="14.00">next file</text>
</g>
</g>
</svg>
