<?xml version="1.0" encoding="UTF-8" standalone="no"?>
<!DOCTYPE svg PUBLIC "-//W3C//DTD SVG 1.1//EN"
 "http://www.w3.org/Graphics/SVG/1.1/DTD/svg11.dtd">
<!-- Generated by graphviz version 2.43.0 (0)
 -->
<!-- Title: mini_shop_er Pages: 1 -->
<svg width="897pt" height="347pt"
 viewBox="0.00 0.00 897.00 347.00" xmlns="http://www.w3.org/2000/svg" xmlns:xlink="http://www.w3.org/1999/xlink">
<g id="graph0" class="graph" transform="scale(1 1) rotate(0) translate(4 343)">
<title>mini_shop_er</title>
<polygon fill="white" stroke="transparent" points="-4,4 -4,-343 893,-343 893,4 -4,4"/>
<!-- User -->
<g id="node1" class="node">
<title>User</title>
<polygon fill="#e8eef7" stroke="transparent" points="8.5,-303 8.5,-324 159.5,-324 159.5,-303 8.5,-303"/>
<polygon fill="none" stroke="black" points="8.5,-303 8.5,-324 159.5,-324 159.5,-303 8.5,-303"/>
<text text-anchor="start" x="70.5" y="-312" font-family="Helvetica,sans-Serif" font-weight="bold" font-size="10.00">User</text>
<polygon fill="none" stroke="black" points="8.5,-282 8.5,-303 70.5,-303 70.5,-282 8.5,-282"/>
<text text-anchor="start" x="13.5" y="-290" font-family="Helvetica,sans-Serif" font-size="10.00">id</text>
<polygon fill="none" stroke="black" points="70.5,-282 70.5,-303 159.5,-303 159.5,-282 70.5,-282"/>
<text text-anchor="start" x="75.5" y="-290" font-family="Helvetica,sans-Serif" font-size="10.00">serial PK</text>
<polygon fill="none" stroke="black" points="8.5,-261 8.5,-282 70.5,-282 70.5,-261 8.5,-261"/>
<text text-anchor="start" x="13.5" y="-269" font-family="Helvetica,sans-Serif" font-size="10.00">email</text>
<polygon fill="none" stroke="black" points="70.5,-261 70.5,-282 159.5,-282 159.5,-261 70.5,-261"/>
<text text-anchor="start" x="75.5" y="-269" font-family="Helvetica,sans-Serif" font-size="10.00">varchar UNIQUE</text>
<polygon fill="none" stroke="black" points="8.5,-240 8.5,-261 70.5,-261 70.5,-240 8.5,-240"/>
<text text-anchor="start" x="13.5" y="-248" font-family="Helvetica,sans-Serif" font-size="10.00">name</text>
<polygon fill="none" stroke="black" points="70.5,-240 70.5,-261 159.5,-261 159.5,-240 70.5,-240"/>
<text text-anchor="start" x="75.5" y="-248" font-family="Helvetica,sans-Serif" font-size="10.00">varchar</text>
<polygon fill="none" stroke="black" points="8.5,-219 8.5,-240 70.5,-240 70.5,-219 8.5,-219"/>
<text text-anchor="start" x="13.5" y="-227" font-family="Helvetica,sans-Serif" font-size="10.00">created_at</text>
<polygon fill="none" stroke="black" points="70.5,-219 70.5,-240 159.5,-240 159.5,-219 70.5,-219"/>
<text text-anchor="start" x="75.5" y="-227" font-family="Helvetica,sans-Serif" font-size="10.00">timestamptz</text>
</g>
<!-- Order -->
<g id="node3" class="node">
<title>Order</title>
<polygon fill="#fff3d6" stroke="transparent" points="348.5,-314 348.5,-335 486.5,-335 486.5,-314 348.5,-314"/>
<polygon fill="none" stroke="black" points="348.5,-314 348.5,-335 486.5,-335 486.5,-314 348.5,-314"/>
<text text-anchor="start" x="400.5" y="-323" font-family="Helvetica,sans-Serif" font-weight="bold" font-size="10.00">Order</text>
<polygon fill="none" stroke="black" points="348.5,-293 348.5,-314 413.5,-314 413.5,-293 348.5,-293"/>
<text text-anchor="start" x="353.5" y="-301" font-family="Helvetica,sans-Serif" font-size="10.00">id</text>
<polygon fill="none" stroke="black" points="413.5,-293 413.5,-314 486.5,-314 486.5,-293 413.5,-293"/>
<text text-anchor="start" x="418.5" y="-301" font-family="Helvetica,sans-Serif" font-size="10.00">serial PK</text>
<polygon fill="none" stroke="black" points="348.5,-272 348.5,-293 413.5,-293 413.5,-272 348.5,-272"/>
<text text-anchor="start" x="353.5" y="-280" font-family="Helvetica,sans-Serif" font-size="10.00">user_id</text>
<polygon fill="none" stroke="black" points="413.5,-272 413.5,-293 486.5,-293 486.5,-272 413.5,-272"/>
<text text-anchor="start" x="418.5" y="-280" font-family="Helvetica,sans-Serif" font-size="10.00">FK → User</text>
<polygon fill="none" stroke="black" points="348.5,-251 348.5,-272 413.5,-272 413.5,-251 348.5,-251"/>
<text text-anchor="start" x="353.5" y="-259" font-family="Helvetica,sans-Serif" font-size="10.00">status</text>
<polygon fill="none" stroke="black" points="413.5,-251 413.5,-272 486.5,-272 486.5,-251 413.5,-251"/>
<text text-anchor="start" x="418.5" y="-259" font-family="Helvetica,sans-Serif" font-size="10.00">varchar</text>
<polygon fill="none" stroke="black" points="348.5,-230 348.5,-251 413.5,-251 413.5,-230 348.5,-230"/>
<text text-anchor="start" x="353.5" y="-238" font-family="Helvetica,sans-Serif" font-size="10.00">total_cents</text>
<polygon fill="none" stroke="black" points="413.5,-230 413.5,-251 486.5,-251 486.5,-230 413.5,-230"/>
<text text-anchor="start" x="418.5" y="-238" font-family="Helvetica,sans-Serif" font-size="10.00">integer</text>
<polygon fill="none" stroke="black" points="348.5,-209 348.5,-230 413.5,-230 413.5,-209 348.5,-209"/>
<text text-anchor="start" x="353.5" y="-217" font-family="Helvetica,sans-Serif" font-size="10.00">created_at</text>
<polygon fill="none" stroke="black" points="413.5,-209 413.5,-230 486.5,-230 486.5,-209 413.5,-209"/>
<text text-anchor="start" x="418.5" y="-217" font-family="Helvetica,sans-Serif" font-size="10.00">timestamptz</text>
</g>
<!-- User&#45;&gt;Order -->
<g id="edge1" class="edge">
<title>User&#45;&gt;Order</title>
<path fill="none" stroke="black" d="M167.42,-272C218.05,-272 282.57,-272 333.26,-272"/>
<polygon fill="black" stroke="black" points="333.31,-272 340.31,-275.15 336.81,-272 340.31,-272 340.31,-272 340.31,-272 336.81,-272 340.31,-268.85 333.31,-272 333.31,-272"/>
<text text-anchor="middle" x="249.5" y="-284.8" font-family="Helvetica,sans-Serif" font-size="9.00">1:N</text>
<text text-anchor="middle" x="249.5" y="-274.8" font-family="Helvetica,sans-Serif" font-size="9.00">ON DELETE RESTRICT</text>
</g>
<!-- Product -->
<g id="node2" class="node">
<title>Product</title>
<polygon fill="#e8eef7" stroke="transparent" points="340.5,-151 340.5,-172 495.5,-172 495.5,-151 340.5,-151"/>
<polygon fill="none" stroke="black" points="340.5,-151 340.5,-172 495.5,-172 495.5,-151 340.5,-151"/>
<text text-anchor="start" x="395.5" y="-160" font-family="Helvetica,sans-Serif" font-weight="bold" font-size="10.00">Product</text>
<polygon fill="none" stroke="black" points="340.5,-130 340.5,-151 406.5,-151 406.5,-130 340.5,-130"/>
<text text-anchor="start" x="345.5" y="-138" font-family="Helvetica,sans-Serif" font-size="10.00">id</text>
<polygon fill="none" stroke="black" points="406.5,-130 406.5,-151 495.5,-151 495.5,-130 406.5,-130"/>
<text text-anchor="start" x="411.5" y="-138" font-family="Helvetica,sans-Serif" font-size="10.00">serial PK</text>
<polygon fill="none" stroke="black" points="340.5,-109 340.5,-130 406.5,-130 406.5,-109 340.5,-109"/>
<text text-anchor="start" x="345.5" y="-117" font-family="Helvetica,sans-Serif" font-size="10.00">sku</text>
<polygon fill="none" stroke="black" points="406.5,-109 406.5,-130 495.5,-130 495.5,-109 406.5,-109"/>
<text text-anchor="start" x="411.5" y="-117" font-family="Helvetica,sans-Serif" font-size="10.00">varchar UNIQUE</text>
<polygon fill="none" stroke="black" points="340.5,-88 340.5,-109 406.5,-109 406.5,-88 340.5,-88"/>
<text text-anchor="start" x="345.5" y="-96" font-family="Helvetica,sans-Serif" font-size="10.00">name</text>
<polygon fill="none" stroke="black" points="406.5,-88 406.5,-109 495.5,-109 495.5,-88 406.5,-88"/>
<text text-anchor="start" x="411.5" y="-96" font-family="Helvetica,sans-Serif" font-size="10.00">varchar</text>
<polygon fill="none" stroke="black" points="340.5,-67 340.5,-88 406.5,-88 406.5,-67 340.5,-67"/>
<text text-anchor="start" x="345.5" y="-75" font-family="Helvetica,sans-Serif" font-size="10.00">price_cents</text>
<polygon fill="none" stroke="black" points="406.5,-67 406.5,-88 495.5,-88 495.5,-67 406.5,-67"/>
<text text-anchor="start" x="411.5" y="-75" font-family="Helvetica,sans-Serif" font-size="10.00">integer</text>
<polygon fill="none" stroke="black" points="340.5,-46 340.5,-67 406.5,-67 406.5,-46 340.5,-46"/>
<text text-anchor="start" x="345.5" y="-54" font-family="Helvetica,sans-Serif" font-size="10.00">stock</text>
<polygon fill="none" stroke="black" points="406.5,-46 406.5,-67 495.5,-67 495.5,-46 406.5,-46"/>
<text text-anchor="start" x="411.5" y="-54" font-family="Helvetica,sans-Serif" font-size="10.00">integer</text>
<polygon fill="none" stroke="black" points="340.5,-25 340.5,-46 406.5,-46 406.5,-25 340.5,-25"/>
<text text-anchor="start" x="345.5" y="-33" font-family="Helvetica,sans-Serif" font-size="10.00">is_active</text>
<polygon fill="none" stroke="black" points="406.5,-25 406.5,-46 495.5,-46 495.5,-25 406.5,-25"/>
<text text-anchor="start" x="411.5" y="-33" font-family="Helvetica,sans-Serif" font-size="10.00">boolean</text>
<polygon fill="none" stroke="black" points="340.5,-4 340.5,-25 406.5,-25 406.5,-4 340.5,-4"/>
<text text-anchor="start" x="345.5" y="-12" font-family="Helvetica,sans-Serif" font-size="10.00">created_at</text>
<polygon fill="none" stroke="black" points="406.5,-4 406.5,-25 495.5,-25 495.5,-4 406.5,-4"/>
<text text-anchor="start" x="411.5" y="-12" font-family="Helvetica,sans-Serif" font-size="10.00">timestamptz</text>
</g>
<!-- OrderItem -->
<g id="node4" class="node">
<title>OrderItem</title>
<polygon fill="#fff3d6" stroke="transparent" points="676.5,-157 676.5,-178 881.5,-178 881.5,-157 676.5,-157"/>
<polygon fill="none" stroke="black" points="676.5,-157 676.5,-178 881.5,-178 881.5,-157 676.5,-157"/>
<text text-anchor="start" x="749.5" y="-166" font-family="Helvetica,sans-Serif" font-weight="bold" font-size="10.00">OrderItem</text>
<polygon fill="none" stroke="black" points="676.5,-136 676.5,-157 807.5,-157 807.5,-136 676.5,-136"/>
<text text-anchor="start" x="681.5" y="-144" font-family="Helvetica,sans-Serif" font-size="10.00">id</text>
<polygon fill="none" stroke="black" points="807.5,-136 807.5,-157 881.5,-157 881.5,-136 807.5,-136"/>
<text text-anchor="start" x="812.5" y="-144" font-family="Helvetica,sans-Serif" font-size="10.00">serial PK</text>
<polygon fill="none" stroke="black" points="676.5,-115 676.5,-136 807.5,-136 807.5,-115 676.5,-115"/>
<text text-anchor="start" x="681.5" y="-123" font-family="Helvetica,sans-Serif" font-size="10.00">order_id</text>
<polygon fill="none" stroke="black" points="807.5,-115 807.5,-136 881.5,-136 881.5,-115 807.5,-115"/>
<text text-anchor="start" x="812.5" y="-123" font-family="Helvetica,sans-Serif" font-size="10.00">FK → Order</text>
<polygon fill="none" stroke="black" points="676.5,-94 676.5,-115 807.5,-115 807.5,-94 676.5,-94"/>
<text text-anchor="start" x="681.5" y="-102" font-family="Helvetica,sans-Serif" font-size="10.00">product_id</text>
<polygon fill="none" stroke="black" points="807.5,-94 807.5,-115 881.5,-115 881.5,-94 807.5,-94"/>
<text text-anchor="start" x="812.5" y="-102" font-family="Helvetica,sans-Serif" font-size="10.00">FK → Product</text>
<polygon fill="none" stroke="black" points="676.5,-73 676.5,-94 807.5,-94 807.5,-73 676.5,-73"/>
<text text-anchor="start" x="681.5" y="-81" font-family="Helvetica,sans-Serif" font-size="10.00">quantity</text>
<polygon fill="none" stroke="black" points="807.5,-73 807.5,-94 881.5,-94 881.5,-73 807.5,-73"/>
<text text-anchor="start" x="812.5" y="-81" font-family="Helvetica,sans-Serif" font-size="10.00">integer</text>
<polygon fill="none" stroke="black" points="676.5,-52 676.5,-73 807.5,-73 807.5,-52 676.5,-52"/>
<text text-anchor="start" x="681.5" y="-60" font-family="Helvetica,sans-Serif" font-size="10.00">price_at_purchase_cents</text>
<polygon fill="none" stroke="black" points="807.5,-52 807.5,-73 881.5,-73 881.5,-52 807.5,-52"/>
<text text-anchor="start" x="812.5" y="-60" font-family="Helvetica,sans-Serif" font-size="10.00">integer</text>
</g>
<!-- Product&#45;&gt;OrderItem -->
<g id="edge3" class="edge">
<title>Product&#45;&gt;OrderItem</title>
<path fill="none" stroke="black" d="M503.12,-94.36C550.14,-97.9 609.36,-102.35 660.73,-106.22"/>
<polygon fill="black" stroke="black" points="660.94,-106.23 667.68,-109.9 664.43,-106.5 667.92,-106.76 667.92,-106.76 667.92,-106.76 664.43,-106.5 668.16,-103.62 660.94,-106.23 660.94,-106.23"/>
<text text-anchor="middle" x="585.5" y="-116.8" font-family="Helvetica,sans-Serif" font-size="9.00">1:N</text>
<text text-anchor="middle" x="585.5" y="-106.8" font-family="Helvetica,sans-Serif" font-size="9.00">ON DELETE RESTRICT</text>
</g>
<!-- Order&#45;&gt;OrderItem -->
<g id="edge2" class="edge">
<title>Order&#45;&gt;OrderItem</title>
<path fill="none" stroke="black" d="M494.63,-238.7C542.99,-217.56 606.53,-189.77 661.14,-165.89"/>
<polygon fill="black" stroke="black" points="661.34,-165.8 669.02,-165.88 664.55,-164.4 667.75,-163 667.75,-163 667.75,-163 664.55,-164.4 666.49,-160.11 661.34,-165.8 661.34,-165.8"/>
<text text-anchor="middle" x="585.5" y="-229.8" font-family="Helvetica,sans-Serif" font-size="9.00">1:N</text>
<text text-anchor="middle" x="585.5" y="-219.8" font-family="Helvetica,sans-Serif" font-size="9.00">ON DELETE CASCADE</text>
</g>
</g>
</svg>
