<?xml version="1.0" encoding="UTF-8" standalone="no"?>
<!DOCTYPE svg PUBLIC "-//W3C//DTD SVG 1.1//EN"
 "http://www.w3.org/Graphics/SVG/1.1/DTD/svg11.dtd">
<!-- Generated by graphviz version 2.43.0 (0)
 -->
<!-- Title: Dialect Pages: 1 -->
<svg width="1818pt" height="281pt"
 viewBox="0.00 0.00 1818.00 281.00" xmlns="http://www.w3.org/2000/svg" xmlns:xlink="http://www.w3.org/1999/xlink">
<g id="graph0" class="graph" transform="scale(1 1) rotate(0) translate(4 277)">
<title>Dialect</title>
<polygon fill="white" stroke="transparent" points="-4,4 -4,-277 1814,-277 1814,4 -4,4"/>
<g id="clust1" class="cluster">
<title>cluster_dml</title>
<path fill="white" stroke="#3a6fb3" stroke-dasharray="5,2" d="M20,-8C20,-8 839,-8 839,-8 845,-8 851,-14 851,-20 851,-20 851,-190 851,-190 851,-196 845,-202 839,-202 839,-202 20,-202 20,-202 14,-202 8,-196 8,-190 8,-190 8,-20 8,-20 8,-14 14,-8 20,-8"/>
<text text-anchor="middle" x="91.5" y="-190" font-family="Helvetica,sans-Serif" font-size="10.00">DML: buildQuery(query: Query)</text>
</g>
<g id="clust2" class="cluster">
<title>cluster_dml_top</title>
<polygon fill="white" stroke="#9aaedb" stroke-dasharray="1,5" points="387,-105 387,-175 843,-175 843,-105 387,-105"/>
<text text-anchor="middle" x="434.5" y="-163.8" font-family="Helvetica,sans-Serif" font-size="9.00">Топ&#45;компілятори</text>
</g>
<g id="clust3" class="cluster">
<title>cluster_dml_sub</title>
<polygon fill="white" stroke="#9aaedb" stroke-dasharray="1,5" points="16,-16 16,-86 843,-86 843,-16 16,-16"/>
<text text-anchor="middle" x="63" y="-74.8" font-family="Helvetica,sans-Serif" font-size="9.00">Під&#45;компілятори</text>
</g>
<g id="clust4" class="cluster">
<title>cluster_ddl</title>
<path fill="white" stroke="#7a4ea3" stroke-dasharray="5,2" d="M871,-8C871,-8 1417,-8 1417,-8 1423,-8 1429,-14 1429,-20 1429,-20 1429,-190 1429,-190 1429,-196 1423,-202 1417,-202 1417,-202 871,-202 871,-202 865,-202 859,-196 859,-190 859,-190 859,-20 859,-20 859,-14 865,-8 871,-8"/>
<text text-anchor="middle" x="944" y="-190" font-family="Helvetica,sans-Serif" font-size="10.00">DDL: buildDdl(query: DdlQuery)</text>
</g>
<g id="clust5" class="cluster">
<title>cluster_ddl_top</title>
<polygon fill="white" stroke="#b294d1" stroke-dasharray="1,5" points="867,-105 867,-175 1421,-175 1421,-105 867,-105"/>
<text text-anchor="middle" x="914.5" y="-163.8" font-family="Helvetica,sans-Serif" font-size="9.00">Топ&#45;компілятори</text>
</g>
<g id="clust6" class="cluster">
<title>cluster_ddl_sub</title>
<polygon fill="white" stroke="#b294d1" stroke-dasharray="1,5" points="929,-16 929,-86 1071,-86 1071,-16 929,-16"/>
<text text-anchor="middle" x="973" y="-74.8" font-family="Helvetica,sans-Serif" font-size="9.00">Під&#45;компілятор</text>
</g>
<g id="clust7" class="cluster">
<title>cluster_helpers</title>
<path fill="white" stroke="#999999" stroke-dasharray="5,2" d="M1449,-105C1449,-105 1790,-105 1790,-105 1796,-105 1802,-111 1802,-117 1802,-117 1802,-164 1802,-164 1802,-170 1796,-176 1790,-176 1790,-176 1449,-176 1449,-176 1443,-176 1437,-170 1437,-164 1437,-164 1437,-117 1437,-117 1437,-111 1443,-105 1449,-105"/>
<text text-anchor="middle" x="1519.5" y="-164" font-family="Helvetica,sans-Serif" font-size="10.00">Діалектозалежні помічники</text>
</g>
<!-- dialect -->
<g id="node1" class="node">
<title>dialect</title>
<path fill="#fff3e0" stroke="#333333" stroke-width="2" d="M1022,-273C1022,-273 922,-273 922,-273 916,-273 910,-267 910,-261 910,-261 910,-249 910,-249 910,-243 916,-237 922,-237 922,-237 1022,-237 1022,-237 1028,-237 1034,-243 1034,-249 1034,-249 1034,-261 1034,-261 1034,-267 1028,-273 1022,-273"/>
<text text-anchor="middle" x="972" y="-258" font-family="Helvetica,sans-Serif" font-size="10.00">PostgresDialect</text>
<text text-anchor="middle" x="972" y="-247" font-family="Helvetica,sans-Serif" font-size="10.00">(implements Dialect)</text>
</g>
<!-- sel -->
<g id="node2" class="node">
<title>sel</title>
<path fill="#e7f0ff" stroke="#333333" d="M478.5,-149C478.5,-149 407.5,-149 407.5,-149 401.5,-149 395.5,-143 395.5,-137 395.5,-137 395.5,-125 395.5,-125 395.5,-119 401.5,-113 407.5,-113 407.5,-113 478.5,-113 478.5,-113 484.5,-113 490.5,-119 490.5,-125 490.5,-125 490.5,-137 490.5,-137 490.5,-143 484.5,-149 478.5,-149"/>
<text text-anchor="middle" x="443" y="-128.5" font-family="Helvetica,sans-Serif" font-size="10.00">SelectCompiler</text>
</g>
<!-- dialect&#45;&gt;sel -->
<g id="edge1" class="edge">
<title>dialect&#45;&gt;sel</title>
<path fill="none" stroke="#666666" d="M909.92,-253.04C798.3,-250.36 568.94,-240.23 500,-202 480.3,-191.07 464.75,-170.35 454.9,-154.27"/>
<polygon fill="#666666" stroke="#666666" points="456.65,-153.11 451.78,-149.02 453.04,-155.25 456.65,-153.11"/>
</g>
<!-- ins -->
<g id="node3" class="node">
<title>ins</title>
<path fill="#e7f0ff" stroke="#333333" d="M823.5,-149C823.5,-149 754.5,-149 754.5,-149 748.5,-149 742.5,-143 742.5,-137 742.5,-137 742.5,-125 742.5,-125 742.5,-119 748.5,-113 754.5,-113 754.5,-113 823.5,-113 823.5,-113 829.5,-113 835.5,-119 835.5,-125 835.5,-125 835.5,-137 835.5,-137 835.5,-143 829.5,-149 823.5,-149"/>
<text text-anchor="middle" x="789" y="-128.5" font-family="Helvetica,sans-Serif" font-size="10.00">InsertCompiler</text>
</g>
<!-- dialect&#45;&gt;ins -->
<g id="edge2" class="edge">
<title>dialect&#45;&gt;ins</title>
<path fill="none" stroke="#666666" d="M928.38,-236.93C907.73,-227.93 883.23,-215.88 863,-202 842.65,-188.04 822.49,-168.49 808.37,-153.6"/>
<polygon fill="#666666" stroke="#666666" points="809.82,-152.08 804.19,-149.14 806.76,-154.96 809.82,-152.08"/>
</g>
<!-- upd -->
<g id="node4" class="node">
<title>upd</title>
<path fill="#e7f0ff" stroke="#333333" d="M597,-149C597,-149 521,-149 521,-149 515,-149 509,-143 509,-137 509,-137 509,-125 509,-125 509,-119 515,-113 521,-113 521,-113 597,-113 597,-113 603,-113 609,-119 609,-125 609,-125 609,-137 609,-137 609,-143 603,-149 597,-149"/>
<text text-anchor="middle" x="559" y="-128.5" font-family="Helvetica,sans-Serif" font-size="10.00">UpdateCompiler</text>
</g>
<!-- dialect&#45;&gt;upd -->
<g id="edge3" class="edge">
<title>dialect&#45;&gt;upd</title>
<path fill="none" stroke="#666666" d="M909.68,-250.07C822.07,-243.66 667.75,-228.9 619,-202 598.98,-190.95 582.62,-170.44 572.07,-154.46"/>
<polygon fill="#666666" stroke="#666666" points="573.73,-153.15 568.72,-149.24 570.19,-155.42 573.73,-153.15"/>
</g>
<!-- del -->
<g id="node5" class="node">
<title>del</title>
<path fill="#e7f0ff" stroke="#333333" d="M712.5,-149C712.5,-149 639.5,-149 639.5,-149 633.5,-149 627.5,-143 627.5,-137 627.5,-137 627.5,-125 627.5,-125 627.5,-119 633.5,-113 639.5,-113 639.5,-113 712.5,-113 712.5,-113 718.5,-113 724.5,-119 724.5,-125 724.5,-125 724.5,-137 724.5,-137 724.5,-143 718.5,-149 712.5,-149"/>
<text text-anchor="middle" x="676" y="-128.5" font-family="Helvetica,sans-Serif" font-size="10.00">DeleteCompiler</text>
</g>
<!-- dialect&#45;&gt;del -->
<g id="edge4" class="edge">
<title>dialect&#45;&gt;del</title>
<path fill="none" stroke="#666666" d="M909.98,-251.5C859.38,-246.97 787.73,-234.72 734,-202 714.87,-190.35 699.12,-170.09 688.88,-154.36"/>
<polygon fill="#666666" stroke="#666666" points="690.61,-153.16 685.63,-149.22 687.06,-155.41 690.61,-153.16"/>
</g>
<!-- crt -->
<g id="node13" class="node">
<title>crt</title>
<path fill="#f3e8fd" stroke="#333333" d="M1118.5,-149C1118.5,-149 1019.5,-149 1019.5,-149 1013.5,-149 1007.5,-143 1007.5,-137 1007.5,-137 1007.5,-125 1007.5,-125 1007.5,-119 1013.5,-113 1019.5,-113 1019.5,-113 1118.5,-113 1118.5,-113 1124.5,-113 1130.5,-119 1130.5,-125 1130.5,-125 1130.5,-137 1130.5,-137 1130.5,-143 1124.5,-149 1118.5,-149"/>
<text text-anchor="middle" x="1069" y="-128.5" font-family="Helvetica,sans-Serif" font-size="10.00">CreateTableCompiler</text>
</g>
<!-- dialect&#45;&gt;crt -->
<g id="edge5" class="edge">
<title>dialect&#45;&gt;crt</title>
<path fill="none" stroke="#666666" d="M985.69,-236.78C1002.95,-215.07 1032.64,-177.73 1051.52,-153.98"/>
<polygon fill="#666666" stroke="#666666" points="1053.29,-155.14 1055.38,-149.13 1050,-152.52 1053.29,-155.14"/>
</g>
<!-- alt -->
<g id="node14" class="node">
<title>alt</title>
<path fill="#f3e8fd" stroke="#333333" d="M977,-149C977,-149 887,-149 887,-149 881,-149 875,-143 875,-137 875,-137 875,-125 875,-125 875,-119 881,-113 887,-113 887,-113 977,-113 977,-113 983,-113 989,-119 989,-125 989,-125 989,-137 989,-137 989,-143 983,-149 977,-149"/>
<text text-anchor="middle" x="932" y="-128.5" font-family="Helvetica,sans-Serif" font-size="10.00">AlterTableCompiler</text>
</g>
<!-- dialect&#45;&gt;alt -->
<g id="edge6" class="edge">
<title>dialect&#45;&gt;alt</title>
<path fill="none" stroke="#666666" d="M966.35,-236.78C959.33,-215.34 947.3,-178.67 939.5,-154.88"/>
<polygon fill="#666666" stroke="#666666" points="941.48,-154.18 937.62,-149.13 937.49,-155.49 941.48,-154.18"/>
</g>
<!-- drp -->
<g id="node15" class="node">
<title>drp</title>
<path fill="#f3e8fd" stroke="#333333" d="M1251,-149C1251,-149 1161,-149 1161,-149 1155,-149 1149,-143 1149,-137 1149,-137 1149,-125 1149,-125 1149,-119 1155,-113 1161,-113 1161,-113 1251,-113 1251,-113 1257,-113 1263,-119 1263,-125 1263,-125 1263,-137 1263,-137 1263,-143 1257,-149 1251,-149"/>
<text text-anchor="middle" x="1206" y="-128.5" font-family="Helvetica,sans-Serif" font-size="10.00">DropTableCompiler</text>
</g>
<!-- dialect&#45;&gt;drp -->
<g id="edge7" class="edge">
<title>dialect&#45;&gt;drp</title>
<path fill="none" stroke="#666666" d="M1034.31,-242.76C1067.45,-234.86 1107.87,-222.03 1140,-202 1159.99,-189.54 1177.99,-169.56 1190.12,-154.13"/>
<polygon fill="#666666" stroke="#666666" points="1192.01,-155.12 1194.01,-149.08 1188.68,-152.56 1192.01,-155.12"/>
</g>
<!-- rnm -->
<g id="node16" class="node">
<title>rnm</title>
<path fill="#f3e8fd" stroke="#333333" d="M1400.5,-149C1400.5,-149 1293.5,-149 1293.5,-149 1287.5,-149 1281.5,-143 1281.5,-137 1281.5,-137 1281.5,-125 1281.5,-125 1281.5,-119 1287.5,-113 1293.5,-113 1293.5,-113 1400.5,-113 1400.5,-113 1406.5,-113 1412.5,-119 1412.5,-125 1412.5,-125 1412.5,-137 1412.5,-137 1412.5,-143 1406.5,-149 1400.5,-149"/>
<text text-anchor="middle" x="1347" y="-128.5" font-family="Helvetica,sans-Serif" font-size="10.00">RenameTableCompiler</text>
</g>
<!-- dialect&#45;&gt;rnm -->
<g id="edge8" class="edge">
<title>dialect&#45;&gt;rnm</title>
<path fill="none" stroke="#666666" d="M1034.09,-253.47C1097.09,-250.65 1195.91,-239.82 1272,-202 1294.98,-190.58 1315.85,-169.84 1329.71,-153.89"/>
<polygon fill="#666666" stroke="#666666" points="1331.49,-155.03 1333.78,-149.1 1328.29,-152.31 1331.49,-155.03"/>
</g>
<!-- pm -->
<g id="node18" class="node">
<title>pm</title>
<path fill="#eef7e8" stroke="#333333" d="M1616.5,-149C1616.5,-149 1457.5,-149 1457.5,-149 1451.5,-149 1445.5,-143 1445.5,-137 1445.5,-137 1445.5,-125 1445.5,-125 1445.5,-119 1451.5,-113 1457.5,-113 1457.5,-113 1616.5,-113 1616.5,-113 1622.5,-113 1628.5,-119 1628.5,-125 1628.5,-125 1628.5,-137 1628.5,-137 1628.5,-143 1622.5,-149 1616.5,-149"/>
<text text-anchor="middle" x="1537" y="-134" font-family="Helvetica,sans-Serif" font-size="10.00">PostgresParameterManager</text>
<text text-anchor="middle" x="1537" y="-123" font-family="Helvetica,sans-Serif" font-size="10.00">(implements ParameterManager)</text>
</g>
<!-- dialect&#45;&gt;pm -->
<g id="edge9" class="edge">
<title>dialect&#45;&gt;pm</title>
<path fill="none" stroke="#666666" stroke-dasharray="5,2" d="M1034.33,-250.25C1141.13,-243.27 1354.39,-226.7 1425,-202 1457.06,-190.79 1489.52,-169.11 1511.18,-152.84"/>
<polygon fill="#666666" stroke="#666666" points="1512.67,-154.34 1516.17,-149.04 1510.13,-151 1512.67,-154.34"/>
<text text-anchor="middle" x="1443.5" y="-212.6" font-family="Times,serif" font-size="8.00">createParameterManager()</text>
</g>
<!-- util -->
<g id="node19" class="node">
<title>util</title>
<path fill="#eef7e8" stroke="#333333" d="M1781.5,-149C1781.5,-149 1658.5,-149 1658.5,-149 1652.5,-149 1646.5,-143 1646.5,-137 1646.5,-137 1646.5,-125 1646.5,-125 1646.5,-119 1652.5,-113 1658.5,-113 1658.5,-113 1781.5,-113 1781.5,-113 1787.5,-113 1793.5,-119 1793.5,-125 1793.5,-125 1793.5,-137 1793.5,-137 1793.5,-143 1787.5,-149 1781.5,-149"/>
<text text-anchor="middle" x="1720" y="-134" font-family="Helvetica,sans-Serif" font-size="10.00">PostgresDialectUtils</text>
<text text-anchor="middle" x="1720" y="-123" font-family="Helvetica,sans-Serif" font-size="10.00">(implements DialectUtils)</text>
</g>
<!-- dialect&#45;&gt;util -->
<g id="edge10" class="edge">
<title>dialect&#45;&gt;util</title>
<path fill="none" stroke="#666666" stroke-dasharray="5,2" d="M1034.09,-254.35C1178.12,-254.32 1530.83,-249.28 1638,-202 1663.05,-190.95 1686.24,-169.68 1701.52,-153.47"/>
<polygon fill="#666666" stroke="#666666" points="1703.08,-154.88 1705.61,-149.05 1700,-152.03 1703.08,-154.88"/>
<text text-anchor="middle" x="1627.5" y="-212.6" font-family="Times,serif" font-size="8.00">getUtils()</text>
</g>
<!-- cnd -->
<g id="node6" class="node">
<title>cnd</title>
<path fill="#dde7f7" stroke="#333333" d="M692.5,-60C692.5,-60 605.5,-60 605.5,-60 599.5,-60 593.5,-54 593.5,-48 593.5,-48 593.5,-36 593.5,-36 593.5,-30 599.5,-24 605.5,-24 605.5,-24 692.5,-24 692.5,-24 698.5,-24 704.5,-30 704.5,-36 704.5,-36 704.5,-48 704.5,-48 704.5,-54 698.5,-60 692.5,-60"/>
<text text-anchor="middle" x="649" y="-39.5" font-family="Helvetica,sans-Serif" font-size="10.00">ConditionCompiler</text>
</g>
<!-- sel&#45;&gt;cnd -->
<g id="edge11" class="edge">
<title>sel&#45;&gt;cnd</title>
<path fill="none" stroke="#666666" d="M479.08,-112.93C485.94,-110.04 493.12,-107.25 500,-105 536.79,-92.95 549.43,-101.28 585,-86 598.33,-80.27 611.85,-71.69 623,-63.69"/>
<polygon fill="#666666" stroke="#666666" points="624.35,-65.3 627.95,-60.07 621.87,-61.91 624.35,-65.3"/>
</g>
<!-- jn -->
<g id="node7" class="node">
<title>jn</title>
<path fill="#dde7f7" stroke="#333333" d="M440.5,-60C440.5,-60 381.5,-60 381.5,-60 375.5,-60 369.5,-54 369.5,-48 369.5,-48 369.5,-36 369.5,-36 369.5,-30 375.5,-24 381.5,-24 381.5,-24 440.5,-24 440.5,-24 446.5,-24 452.5,-30 452.5,-36 452.5,-36 452.5,-48 452.5,-48 452.5,-54 446.5,-60 440.5,-60"/>
<text text-anchor="middle" x="411" y="-39.5" font-family="Helvetica,sans-Serif" font-size="10.00">JoinCompiler</text>
</g>
<!-- sel&#45;&gt;jn -->
<g id="edge12" class="edge">
<title>sel&#45;&gt;jn</title>
<path fill="none" stroke="#666666" d="M436.68,-112.81C431.77,-99.47 424.91,-80.83 419.52,-66.17"/>
<polygon fill="#666666" stroke="#666666" points="421.35,-65.06 417.31,-60.15 417.41,-66.51 421.35,-65.06"/>
</g>
<!-- ord -->
<g id="node8" class="node">
<title>ord</title>
<path fill="#dde7f7" stroke="#333333" d="M563.5,-60C563.5,-60 482.5,-60 482.5,-60 476.5,-60 470.5,-54 470.5,-48 470.5,-48 470.5,-36 470.5,-36 470.5,-30 476.5,-24 482.5,-24 482.5,-24 563.5,-24 563.5,-24 569.5,-24 575.5,-30 575.5,-36 575.5,-36 575.5,-48 575.5,-48 575.5,-54 569.5,-60 563.5,-60"/>
<text text-anchor="middle" x="523" y="-39.5" font-family="Helvetica,sans-Serif" font-size="10.00">OrderByCompiler</text>
</g>
<!-- sel&#45;&gt;ord -->
<g id="edge13" class="edge">
<title>sel&#45;&gt;ord</title>
<path fill="none" stroke="#666666" d="M458.81,-112.81C471.52,-98.99 489.45,-79.49 503.13,-64.61"/>
<polygon fill="#666666" stroke="#666666" points="504.71,-65.99 507.23,-60.15 501.62,-63.15 504.71,-65.99"/>
</g>
<!-- grp -->
<g id="node9" class="node">
<title>grp</title>
<path fill="#dde7f7" stroke="#333333" d="M118.5,-60C118.5,-60 35.5,-60 35.5,-60 29.5,-60 23.5,-54 23.5,-48 23.5,-48 23.5,-36 23.5,-36 23.5,-30 29.5,-24 35.5,-24 35.5,-24 118.5,-24 118.5,-24 124.5,-24 130.5,-30 130.5,-36 130.5,-36 130.5,-48 130.5,-48 130.5,-54 124.5,-60 118.5,-60"/>
<text text-anchor="middle" x="77" y="-39.5" font-family="Helvetica,sans-Serif" font-size="10.00">GroupByCompiler</text>
</g>
<!-- sel&#45;&gt;grp -->
<g id="edge14" class="edge">
<title>sel&#45;&gt;grp</title>
<path fill="none" stroke="#666666" d="M395.39,-129.66C334.25,-127.77 225.81,-119.44 140,-86 126.41,-80.7 112.85,-72.01 101.82,-63.82"/>
<polygon fill="#666666" stroke="#666666" points="102.98,-62.06 96.93,-60.1 100.44,-65.4 102.98,-62.06"/>
</g>
<!-- lim -->
<g id="node10" class="node">
<title>lim</title>
<path fill="#dde7f7" stroke="#333333" d="M227,-60C227,-60 161,-60 161,-60 155,-60 149,-54 149,-48 149,-48 149,-36 149,-36 149,-30 155,-24 161,-24 161,-24 227,-24 227,-24 233,-24 239,-30 239,-36 239,-36 239,-48 239,-48 239,-54 233,-60 227,-60"/>
<text text-anchor="middle" x="194" y="-39.5" font-family="Helvetica,sans-Serif" font-size="10.00">LimitCompiler</text>
</g>
<!-- sel&#45;&gt;lim -->
<g id="edge15" class="edge">
<title>sel&#45;&gt;lim</title>
<path fill="none" stroke="#666666" d="M395.34,-125.3C354.6,-119.9 295.25,-108.66 248,-86 236.59,-80.53 225.41,-72.25 216.2,-64.42"/>
<polygon fill="#666666" stroke="#666666" points="217.48,-62.75 211.58,-60.38 214.72,-65.91 217.48,-62.75"/>
</g>
<!-- off -->
<g id="node11" class="node">
<title>off</title>
<path fill="#dde7f7" stroke="#333333" d="M339,-60C339,-60 269,-60 269,-60 263,-60 257,-54 257,-48 257,-48 257,-36 257,-36 257,-30 263,-24 269,-24 269,-24 339,-24 339,-24 345,-24 351,-30 351,-36 351,-36 351,-48 351,-48 351,-54 345,-60 339,-60"/>
<text text-anchor="middle" x="304" y="-39.5" font-family="Helvetica,sans-Serif" font-size="10.00">OffsetCompiler</text>
</g>
<!-- sel&#45;&gt;off -->
<g id="edge16" class="edge">
<title>sel&#45;&gt;off</title>
<path fill="none" stroke="#666666" d="M407.53,-112.85C392.54,-105.19 375.09,-95.7 360,-86 349.64,-79.34 338.78,-71.29 329.42,-63.95"/>
<polygon fill="#666666" stroke="#666666" points="330.68,-62.27 324.67,-60.2 328.07,-65.57 330.68,-62.27"/>
</g>
<!-- ret -->
<g id="node12" class="node">
<title>ret</title>
<path fill="#dde7f7" stroke="#333333" d="M823,-60C823,-60 735,-60 735,-60 729,-60 723,-54 723,-48 723,-48 723,-36 723,-36 723,-30 729,-24 735,-24 735,-24 823,-24 823,-24 829,-24 835,-30 835,-36 835,-36 835,-48 835,-48 835,-54 829,-60 823,-60"/>
<text text-anchor="middle" x="779" y="-39.5" font-family="Helvetica,sans-Serif" font-size="10.00">ReturningCompiler</text>
</g>
<!-- ins&#45;&gt;ret -->
<g id="edge17" class="edge">
<title>ins&#45;&gt;ret</title>
<path fill="none" stroke="#666666" d="M787.02,-112.81C785.49,-99.47 783.35,-80.83 781.66,-66.17"/>
<polygon fill="#666666" stroke="#666666" points="783.74,-65.87 780.97,-60.15 779.57,-66.35 783.74,-65.87"/>
</g>
<!-- upd&#45;&gt;cnd -->
<g id="edge18" class="edge">
<title>upd&#45;&gt;cnd</title>
<path fill="none" stroke="#666666" d="M576.78,-112.81C591.08,-98.99 611.25,-79.49 626.64,-64.61"/>
<polygon fill="#666666" stroke="#666666" points="628.4,-65.83 631.26,-60.15 625.48,-62.81 628.4,-65.83"/>
</g>
<!-- upd&#45;&gt;ret -->
<g id="edge19" class="edge">
<title>upd&#45;&gt;ret</title>
<path fill="none" stroke="#666666" d="M596.67,-112.98C603.99,-110.05 611.66,-107.24 619,-105 660.18,-92.44 674.19,-102.41 714,-86 727.56,-80.41 741.29,-71.85 752.62,-63.83"/>
<polygon fill="#666666" stroke="#666666" points="754.01,-65.41 757.64,-60.19 751.55,-62.01 754.01,-65.41"/>
</g>
<!-- del&#45;&gt;cnd -->
<g id="edge20" class="edge">
<title>del&#45;&gt;cnd</title>
<path fill="none" stroke="#666666" d="M670.67,-112.81C666.52,-99.47 660.74,-80.83 656.19,-66.17"/>
<polygon fill="#666666" stroke="#666666" points="658.11,-65.26 654.32,-60.15 654.1,-66.51 658.11,-65.26"/>
</g>
<!-- del&#45;&gt;ret -->
<g id="edge21" class="edge">
<title>del&#45;&gt;ret</title>
<path fill="none" stroke="#666666" d="M696.35,-112.81C712.85,-98.87 736.2,-79.15 753.87,-64.23"/>
<polygon fill="#666666" stroke="#666666" points="755.46,-65.63 758.69,-60.15 752.75,-62.42 755.46,-65.63"/>
</g>
<!-- ct -->
<g id="node17" class="node">
<title>ct</title>
<path fill="#e8d4f5" stroke="#333333" d="M1050.5,-60C1050.5,-60 949.5,-60 949.5,-60 943.5,-60 937.5,-54 937.5,-48 937.5,-48 937.5,-36 937.5,-36 937.5,-30 943.5,-24 949.5,-24 949.5,-24 1050.5,-24 1050.5,-24 1056.5,-24 1062.5,-30 1062.5,-36 1062.5,-36 1062.5,-48 1062.5,-48 1062.5,-54 1056.5,-60 1050.5,-60"/>
<text text-anchor="middle" x="1000" y="-39.5" font-family="Helvetica,sans-Serif" font-size="10.00">ColumnTypeCompiler</text>
</g>
<!-- crt&#45;&gt;ct -->
<g id="edge22" class="edge">
<title>crt&#45;&gt;ct</title>
<path fill="none" stroke="#666666" d="M1055.37,-112.81C1044.5,-99.11 1029.21,-79.83 1017.45,-65"/>
<polygon fill="#666666" stroke="#666666" points="1018.98,-63.55 1013.6,-60.15 1015.69,-66.16 1018.98,-63.55"/>
</g>
<!-- alt&#45;&gt;ct -->
<g id="edge23" class="edge">
<title>alt&#45;&gt;ct</title>
<path fill="none" stroke="#666666" d="M945.43,-112.81C956.15,-99.11 971.22,-79.83 982.81,-65"/>
<polygon fill="#666666" stroke="#666666" points="984.55,-66.17 986.59,-60.15 981.24,-63.59 984.55,-66.17"/>
</g>
</g>
</svg>
