<?xml version="1.0" encoding="UTF-8" standalone="no"?>
<!DOCTYPE svg PUBLIC "-//W3C//DTD SVG 1.1//EN"
 "http://www.w3.org/Graphics/SVG/1.1/DTD/svg11.dtd">
<!-- Generated by graphviz version 2.43.0 (0)
 -->
<!-- Title: ar_vs_repo Pages: 1 -->
<svg width="442pt" height="483pt"
 viewBox="0.00 0.00 442.00 483.00" xmlns="http://www.w3.org/2000/svg" xmlns:xlink="http://www.w3.org/1999/xlink">
<g id="graph0" class="graph" transform="scale(1 1) rotate(0) translate(4 479)">
<title>ar_vs_repo</title>
<polygon fill="white" stroke="transparent" points="-4,4 -4,-479 438,-479 438,4 -4,4"/>
<g id="clust1" class="cluster">
<title>cluster_ar</title>
<path fill="white" stroke="#3a6fb3" stroke-dasharray="5,2" d="M20,-220C20,-220 196,-220 196,-220 202,-220 208,-226 208,-232 208,-232 208,-455 208,-455 208,-461 202,-467 196,-467 196,-467 20,-467 20,-467 14,-467 8,-461 8,-455 8,-455 8,-232 8,-232 8,-226 14,-220 20,-220"/>
<text text-anchor="middle" x="82.5" y="-454.2" font-family="Helvetica,sans-Serif" font-size="11.00">Active Record — фасад</text>
</g>
<g id="clust2" class="cluster">
<title>cluster_repo</title>
<path fill="white" stroke="#7a4ea3" stroke-dasharray="5,2" d="M228,-225.5C228,-225.5 414,-225.5 414,-225.5 420,-225.5 426,-231.5 426,-237.5 426,-237.5 426,-364 426,-364 426,-370 420,-376 414,-376 414,-376 228,-376 228,-376 222,-376 216,-370 216,-364 216,-364 216,-237.5 216,-237.5 216,-231.5 222,-225.5 228,-225.5"/>
<text text-anchor="middle" x="281.5" y="-363.2" font-family="Helvetica,sans-Serif" font-size="11.00">Repository — фасад</text>
</g>
<!-- ar_call -->
<g id="node1" class="node">
<title>ar_call</title>
<path fill="#e7f0ff" stroke="#333333" d="M174.5,-439C174.5,-439 41.5,-439 41.5,-439 35.5,-439 29.5,-433 29.5,-427 29.5,-427 29.5,-415 29.5,-415 29.5,-409 35.5,-403 41.5,-403 41.5,-403 174.5,-403 174.5,-403 180.5,-403 186.5,-409 186.5,-415 186.5,-415 186.5,-427 186.5,-427 186.5,-433 180.5,-439 174.5,-439"/>
<text text-anchor="middle" x="108" y="-418.5" font-family="Helvetica,sans-Serif" font-size="10.00">User.find({ where: { … } })</text>
</g>
<!-- ar_stat -->
<g id="node2" class="node">
<title>ar_stat</title>
<path fill="#dde7f7" stroke="#333333" d="M164.5,-348C164.5,-348 51.5,-348 51.5,-348 45.5,-348 39.5,-342 39.5,-336 39.5,-336 39.5,-324 39.5,-324 39.5,-318 45.5,-312 51.5,-312 51.5,-312 164.5,-312 164.5,-312 170.5,-312 176.5,-318 176.5,-324 176.5,-324 176.5,-336 176.5,-336 176.5,-342 170.5,-348 164.5,-348"/>
<text text-anchor="middle" x="108" y="-327.5" font-family="Helvetica,sans-Serif" font-size="10.00">BaseModel.find (static)</text>
</g>
<!-- ar_call&#45;&gt;ar_stat -->
<g id="edge1" class="edge">
<title>ar_call&#45;&gt;ar_stat</title>
<path fill="none" stroke="#666666" d="M108,-402.84C108,-389.3 108,-370.24 108,-355.15"/>
<polygon fill="#666666" stroke="#666666" points="110.45,-355.11 108,-348.11 105.55,-355.11 110.45,-355.11"/>
</g>
<!-- ar_get -->
<g id="node3" class="node">
<title>ar_get</title>
<path fill="#dde7f7" stroke="#333333" d="M187.5,-275C187.5,-275 28.5,-275 28.5,-275 22.5,-275 16.5,-269 16.5,-263 16.5,-263 16.5,-240 16.5,-240 16.5,-234 22.5,-228 28.5,-228 28.5,-228 187.5,-228 187.5,-228 193.5,-228 199.5,-234 199.5,-240 199.5,-240 199.5,-263 199.5,-263 199.5,-269 193.5,-275 187.5,-275"/>
<text text-anchor="middle" x="108" y="-260" font-family="Helvetica,sans-Serif" font-size="10.00">getRepoFor(User)</text>
<text text-anchor="middle" x="108" y="-249" font-family="Helvetica,sans-Serif" font-size="10.00">— resolveDataSource(cls)</text>
<text text-anchor="middle" x="108" y="-238" font-family="Helvetica,sans-Serif" font-size="10.00">— ambientEntityManagerFor(ds)</text>
</g>
<!-- ar_stat&#45;&gt;ar_get -->
<g id="edge2" class="edge">
<title>ar_stat&#45;&gt;ar_get</title>
<path fill="none" stroke="#666666" d="M108,-311.64C108,-302.91 108,-292.1 108,-282.11"/>
<polygon fill="#666666" stroke="#666666" points="110.45,-282.02 108,-275.02 105.55,-282.02 110.45,-282.02"/>
</g>
<!-- core -->
<g id="node6" class="node">
<title>core</title>
<path fill="#fff7d6" stroke="#a87000" d="M281,-182C281,-182 139,-182 139,-182 133,-182 127,-176 127,-170 127,-170 127,-158 127,-158 127,-152 133,-146 139,-146 139,-146 281,-146 281,-146 287,-146 293,-152 293,-158 293,-158 293,-170 293,-170 293,-176 287,-182 281,-182"/>
<text text-anchor="middle" x="210" y="-161.5" font-family="Helvetica,sans-Serif" font-size="10.00">Repository&lt;User&gt;.find(args)</text>
</g>
<!-- ar_get&#45;&gt;core -->
<g id="edge3" class="edge">
<title>ar_get&#45;&gt;core</title>
<path fill="none" stroke="#666666" d="M135.07,-227.81C150.18,-215.15 168.91,-199.44 183.87,-186.91"/>
<polygon fill="#666666" stroke="#666666" points="185.82,-188.47 189.61,-182.09 182.67,-184.71 185.82,-188.47"/>
<text text-anchor="middle" x="202.5" y="-202.8" font-family="Helvetica,sans-Serif" font-size="9.00">repo.find(args)</text>
</g>
<!-- repo_call -->
<g id="node4" class="node">
<title>repo_call</title>
<path fill="#f3e8fd" stroke="#333333" d="M405.5,-348C405.5,-348 236.5,-348 236.5,-348 230.5,-348 224.5,-342 224.5,-336 224.5,-336 224.5,-324 224.5,-324 224.5,-318 230.5,-312 236.5,-312 236.5,-312 405.5,-312 405.5,-312 411.5,-312 417.5,-318 417.5,-324 417.5,-324 417.5,-336 417.5,-336 417.5,-342 411.5,-348 405.5,-348"/>
<text text-anchor="middle" x="321" y="-327.5" font-family="Helvetica,sans-Serif" font-size="10.00">ds.getRepository(User).find({ … })</text>
</g>
<!-- ds_get -->
<g id="node5" class="node">
<title>ds_get</title>
<path fill="#e8d4f5" stroke="#333333" d="M378.5,-269.5C378.5,-269.5 245.5,-269.5 245.5,-269.5 239.5,-269.5 233.5,-263.5 233.5,-257.5 233.5,-257.5 233.5,-245.5 233.5,-245.5 233.5,-239.5 239.5,-233.5 245.5,-233.5 245.5,-233.5 378.5,-233.5 378.5,-233.5 384.5,-233.5 390.5,-239.5 390.5,-245.5 390.5,-245.5 390.5,-257.5 390.5,-257.5 390.5,-263.5 384.5,-269.5 378.5,-269.5"/>
<text text-anchor="middle" x="312" y="-254.5" font-family="Helvetica,sans-Serif" font-size="10.00">DataSource.getRepository</text>
<text text-anchor="middle" x="312" y="-243.5" font-family="Helvetica,sans-Serif" font-size="10.00">(кеш + repositoryRegistry)</text>
</g>
<!-- repo_call&#45;&gt;ds_get -->
<g id="edge4" class="edge">
<title>repo_call&#45;&gt;ds_get</title>
<path fill="none" stroke="#666666" d="M318.96,-311.64C317.74,-301.3 316.18,-288.02 314.84,-276.66"/>
<polygon fill="#666666" stroke="#666666" points="317.25,-276.19 314,-269.53 312.39,-276.77 317.25,-276.19"/>
</g>
<!-- ds_get&#45;&gt;core -->
<g id="edge5" class="edge">
<title>ds_get&#45;&gt;core</title>
<path fill="none" stroke="#666666" d="M291.36,-233.2C275.46,-219.87 253.37,-201.36 236.22,-186.98"/>
<polygon fill="#666666" stroke="#666666" points="237.55,-184.9 230.61,-182.28 234.4,-188.65 237.55,-184.9"/>
<text text-anchor="middle" x="295.5" y="-202.8" font-family="Helvetica,sans-Serif" font-size="9.00">repo.find(args)</text>
</g>
<!-- resolve -->
<g id="node7" class="node">
<title>resolve</title>
<path fill="#fde7ef" stroke="#9b3a64" d="M332.5,-109C332.5,-109 87.5,-109 87.5,-109 81.5,-109 75.5,-103 75.5,-97 75.5,-97 75.5,-85 75.5,-85 75.5,-79 81.5,-73 87.5,-73 87.5,-73 332.5,-73 332.5,-73 338.5,-73 344.5,-79 344.5,-85 344.5,-85 344.5,-97 344.5,-97 344.5,-103 338.5,-109 332.5,-109"/>
<text text-anchor="middle" x="210" y="-94" font-family="Helvetica,sans-Serif" font-size="10.00">Repository.resolveDriver()</text>
<text text-anchor="middle" x="210" y="-83" font-family="Helvetica,sans-Serif" font-size="10.00">txDriver? &#160;→ &#160;ambientTxFor(ds)? &#160;→ &#160;ds.getDriver()</text>
</g>
<!-- core&#45;&gt;resolve -->
<g id="edge6" class="edge">
<title>core&#45;&gt;resolve</title>
<path fill="none" stroke="#666666" d="M210,-145.81C210,-136.92 210,-125.91 210,-116.17"/>
<polygon fill="#666666" stroke="#666666" points="212.45,-116.03 210,-109.03 207.55,-116.03 212.45,-116.03"/>
</g>
<!-- driver -->
<g id="node8" class="node">
<title>driver</title>
<path fill="#eef7e8" stroke="#3f7a3f" d="M269,-36C269,-36 151,-36 151,-36 145,-36 139,-30 139,-24 139,-24 139,-12 139,-12 139,-6 145,0 151,0 151,0 269,0 269,0 275,0 281,-6 281,-12 281,-12 281,-24 281,-24 281,-30 275,-36 269,-36"/>
<text text-anchor="middle" x="210" y="-15.5" font-family="Helvetica,sans-Serif" font-size="10.00">Driver.query(ast: Query)</text>
</g>
<!-- resolve&#45;&gt;driver -->
<g id="edge7" class="edge">
<title>resolve&#45;&gt;driver</title>
<path fill="none" stroke="#666666" d="M210,-72.81C210,-63.92 210,-52.91 210,-43.17"/>
<polygon fill="#666666" stroke="#666666" points="212.45,-43.03 210,-36.03 207.55,-43.03 212.45,-43.03"/>
</g>
</g>
</svg>
